<svg width="23" height="23" viewBox="0 0 23 23" fill="none" xmlns="http://www.w3.org/2000/svg">
    <path fill-rule="evenodd" clip-rule="evenodd" d="M19.375 2.05H16.3375C15.8404 2.05 15.4375 1.64706 15.4375 1.15C15.4375 0.652944 15.8404 0.25 16.3375 0.25H19.375C21.239 0.25 22.75 1.76104 22.75 3.625V6.6625C22.75 7.15956 22.3471 7.5625 21.85 7.5625C21.3529 7.5625 20.95 7.15956 20.95 6.6625V3.625C20.95 2.75515 20.2448 2.05 19.375 2.05ZM21.85 15.4375C21.3529 15.4375 20.95 15.8404 20.95 16.3375V19.375C20.95 20.2448 20.2448 20.95 19.375 20.95H16.3375C15.8404 20.95 15.4375 21.3529 15.4375 21.85C15.4375 22.3471 15.8404 22.75 16.3375 22.75H19.375C21.239 22.75 22.75 21.239 22.75 19.375V16.3375C22.75 15.8404 22.3471 15.4375 21.85 15.4375ZM3.625 0.25H6.6625C7.15956 0.25 7.5625 0.652944 7.5625 1.15C7.5625 1.64706 7.15956 2.05 6.6625 2.05H3.625C2.75515 2.05 2.05 2.75515 2.05 3.625V6.6625C2.05 7.15956 1.64706 7.5625 1.15 7.5625C0.652944 7.5625 0.25 7.15956 0.25 6.6625V3.625C0.25 1.76104 1.76104 0.25 3.625 0.25ZM1.15 15.4375C0.652944 15.4375 0.25 15.8404 0.25 16.3375V19.375C0.25 21.239 1.76104 22.75 3.625 22.75H6.6625C7.15956 22.75 7.5625 22.3471 7.5625 21.85C7.5625 21.3529 7.15956 20.95 6.6625 20.95H3.625C2.75515 20.95 2.05 20.2448 2.05 19.375V16.3375C2.05 15.8404 1.64706 15.4375 1.15 15.4375Z" fill="#9EADC4"/>
    <path d="M11.5 19C11.6432 19 11.7835 18.9624 11.9049 18.8914L18.016 15.32C18.2393 15.1895 18.375 14.9606 18.375 14.7143V8.28572C18.375 8.03944 18.2393 7.81053 18.016 7.68L11.9049 4.10857C11.6572 3.96381 11.3428 3.96381 11.0951 4.10857L4.98403 7.68C4.76068 7.81053 4.625 8.03944 4.625 8.28572V14.7143C4.625 14.9606 4.76068 15.1895 4.98403 15.32L11.0951 18.8914C11.2165 18.9624 11.3568 19 11.5 19ZM16.8472 14.3186L12.2639 17V12.2536L16.8472 9.575V14.3186ZM11.5 5.55643L16.1697 8.28572L11.5 11.015L6.83035 8.28572L11.5 5.55643ZM10.7361 17L6.15278 14.3214V9.575L10.7361 12.2536V17Z" fill="#9EADC4"/>
</svg>
