<svg width="23" height="23" viewBox="0 0 23 23" fill="none" xmlns="http://www.w3.org/2000/svg">
    <path fill-rule="evenodd" clip-rule="evenodd" d="M22.7499 11.3242V7.80857C22.7499 7.32329 22.3564 6.92967 21.871 6.92967H18.786L14.1419 0.608578C13.8544 0.217362 13.3044 0.133248 12.9131 0.42078C12.5219 0.708142 12.4378 1.25814 12.7252 1.64936L16.6049 6.92967H6.42759L10.3071 1.64936C10.5945 1.25814 10.5104 0.708142 10.1192 0.42078C9.72795 0.133248 9.17795 0.217533 8.89059 0.608578L4.24628 6.92967H1.12891C0.643449 6.92967 0.25 7.32311 0.25 7.80857V11.3242C0.25 11.8097 0.643449 12.2031 1.12891 12.2031H1.72166L2.61447 19.6527C2.82613 21.4184 4.32679 22.75 6.10521 22.75H16.9652C18.7568 22.75 20.2587 21.4072 20.4589 19.6269L21.293 12.2031H21.871C22.3564 12.2031 22.7499 11.8097 22.7499 11.3242ZM3.492 12.2031L4.35992 19.4436C4.46567 20.3265 5.216 20.9922 6.10521 20.9922H16.9652C17.8609 20.9922 18.612 20.3208 18.712 19.4306L19.5241 12.2031H3.492ZM20.9922 8.68748V10.4453H2.00782V8.68748H20.9922Z" fill="#9EADC4"/>
    <path d="M12.8867 18.3555V14.8398C12.8867 14.3544 13.2801 13.9609 13.7656 13.9609C14.2509 13.9609 14.6445 14.3544 14.6445 14.8398V18.3555C14.6445 18.8409 14.2509 19.2344 13.7656 19.2344C13.2801 19.2344 12.8867 18.8409 12.8867 18.3555Z" fill="#9EADC4"/>
    <path d="M8.35537 18.3555V14.8398C8.35537 14.3544 8.74882 13.9609 9.23428 13.9609C9.71957 13.9609 10.1132 14.3544 10.1132 14.8398V18.3555C10.1132 18.8409 9.71957 19.2344 9.23428 19.2344C8.74882 19.2344 8.35537 18.8409 8.35537 18.3555Z" fill="#9EADC4"/>
</svg>
