<svg width="21" height="21" viewBox="0 0 21 21" fill="none" xmlns="http://www.w3.org/2000/svg">
    <path fill-rule="evenodd" clip-rule="evenodd" d="M2.34615 2.34615V10.4425H7.88461V2.34615H2.34615ZM1.75 0.5C1.05964 0.5 0.5 1.05964 0.5 1.75V11.0386C0.5 11.729 1.05964 12.2886 1.75 12.2886H8.48077C9.17113 12.2886 9.73077 11.729 9.73077 11.0386V1.75C9.73077 1.05964 9.17113 0.5 8.48077 0.5H1.75Z" fill="#9EADC4"/>
    <path fill-rule="evenodd" clip-rule="evenodd" d="M13.1154 2.34615V5.33196H18.6538V2.34615H13.1154ZM12.5192 0.5C11.8289 0.5 11.2692 1.05964 11.2692 1.75V5.92812C11.2692 6.61847 11.8289 7.17812 12.5192 7.17812H19.25C19.9404 7.17812 20.5 6.61847 20.5 5.92812V1.75C20.5 1.05964 19.9404 0.5 19.25 0.5H12.5192Z" fill="#9EADC4"/>
    <path fill-rule="evenodd" clip-rule="evenodd" d="M13.1154 10.5639V18.6539H18.6538V10.5639H13.1154ZM12.5192 8.71777C11.8289 8.71777 11.2692 9.27742 11.2692 9.96777V19.25C11.2692 19.9404 11.8289 20.5 12.5192 20.5H19.25C19.9404 20.5 20.5 19.9404 20.5 19.25V9.96777C20.5 9.27742 19.9404 8.71777 19.25 8.71777H12.5192Z" fill="#9EADC4"/>
    <path fill-rule="evenodd" clip-rule="evenodd" d="M2.34615 15.671V18.6538H7.88461V15.671H2.34615ZM1.75 13.8249C1.05964 13.8249 0.5 14.3845 0.5 15.0749V19.25C0.5 19.9403 1.05964 20.5 1.75 20.5H8.48077C9.17113 20.5 9.73077 19.9403 9.73077 19.25V15.0749C9.73077 14.3845 9.17113 13.8249 8.48077 13.8249H1.75Z" fill="#9EADC4"/>
</svg>
