<svg width="20" height="20" viewBox="0 0 20 20" fill="none" xmlns="http://www.w3.org/2000/svg">
    <path d="M9.99758 11.156L14.4869 6.66688C14.6102 6.54328 14.775 6.47528 14.9508 6.47528C15.1267 6.47528 15.2915 6.54328 15.415 6.66688L15.8082 7.06024C15.9319 7.18365 16 7.34863 16 7.52443C16 7.70023 15.9319 7.86501 15.8082 7.98852L10.4633 13.3335C10.3394 13.4575 10.1739 13.5254 9.99787 13.5249C9.82109 13.5254 9.65573 13.4576 9.53173 13.3335L4.19203 7.99349C4.06832 7.86998 4.00023 7.70521 4.00023 7.52931C4.00023 7.35351 4.06832 7.18873 4.19203 7.06512L4.58519 6.67186C4.84109 6.41596 5.25767 6.41596 5.51347 6.67186L9.99758 11.156Z" fill="black"/>
</svg>
