<svg width="17" height="18" viewBox="0 0 17 18" fill="none" xmlns="http://www.w3.org/2000/svg">
    <path d="M16.3837 9.09253C16.3837 8.48536 16.3294 7.90438 16.2285 7.3457H8.42261V10.5464L12.9182 10.5474C12.7358 11.6124 12.149 12.5202 11.2499 13.1255V15.2021H13.9259C15.4885 13.7559 16.3837 11.6182 16.3837 9.09253Z" fill="#4285F4"/>
    <path d="M11.2511 13.125C10.5062 13.6275 9.54694 13.9213 8.42474 13.9213C6.25697 13.9213 4.41799 12.4606 3.75942 10.4917H0.999023V12.6333C2.36661 15.3471 5.17744 17.2094 8.42474 17.2094C10.6691 17.2094 12.5547 16.4713 13.9271 15.2007L11.2511 13.125Z" fill="#34A853"/>
    <path d="M3.49904 8.90414C3.49904 8.35128 3.59118 7.81686 3.75898 7.31444V5.17285H0.998587C0.433123 6.29505 0.11499 7.56177 0.11499 8.90414C0.11499 10.2465 0.434093 11.5132 0.998587 12.6354L3.75898 10.4938C3.59118 9.99142 3.49904 9.45699 3.49904 8.90414Z" fill="#FABB05"/>
    <path d="M8.42474 3.88422C9.64975 3.88422 10.7467 4.30614 11.6129 5.13057L13.9843 2.76106C12.544 1.41966 10.6662 0.596191 8.42474 0.596191C5.17841 0.596191 2.36661 2.45844 0.999023 5.17228L3.75942 7.31387C4.41799 5.34493 6.25697 3.88422 8.42474 3.88422Z" fill="#E94235"/>
</svg>
