<svg width="14" height="18" viewBox="0 0 14 18" fill="none" xmlns="http://www.w3.org/2000/svg">
    <path fill-rule="evenodd" clip-rule="evenodd" d="M7.00001 0C7.57114 0 8.11851 0.069671 8.63637 0.199517C12.5427 1.17898 14.7692 5.58249 12.8377 9.3342L9.47888 16.4443C8.4998 18.517 5.50162 18.52 4.52111 16.4443L1.16231 9.3343C-1.02495 5.0864 2.11976 0 7.00001 0ZM7.00001 1.63636C3.30507 1.63636 1.00866 5.46136 2.61714 8.58521L2.62994 8.61007L6.00067 15.7453C6.38994 16.5694 7.60983 16.5699 7.99929 15.7454L11.3701 8.61001L11.3829 8.58521C12.9915 5.46044 10.6943 1.63636 7.00001 1.63636ZM7.00001 2.78458C9.00573 2.78458 10.6814 4.39405 10.6814 6.43235C10.6814 8.47064 9.00571 10.0801 7.00001 10.0801C4.99431 10.0801 3.31864 8.47064 3.31864 6.43235C3.31864 4.3941 4.99427 2.78458 7.00001 2.78458ZM9.04503 6.43235C9.04503 5.32323 8.12766 4.42093 7.00001 4.42093C5.87236 4.42093 4.95499 5.32327 4.95499 6.43235C4.95499 7.54144 5.87236 8.44374 7.00001 8.44374C8.12766 8.44374 9.04503 7.54144 9.04503 6.43235Z" fill="black"/>
</svg>
