<svg width="57" height="30" viewBox="0 0 57 30" fill="none" xmlns="http://www.w3.org/2000/svg">
    <g clip-path="url(#clip0_9984_14218)">
        <path d="M41.9774 0H15.5774C7.32739 0 0.577393 6.75 0.577393 15C0.577393 23.25 7.32739 30 15.5774 30H41.9774C50.2274 30 56.9774 23.25 56.9774 15C56.9774 6.75 50.2274 0 41.9774 0Z" fill="white"/>
        <path d="M41.9774 1.215C43.8299 1.215 45.6299 1.5825 47.3249 2.3025C48.9674 3 50.4374 3.9975 51.7124 5.265C52.9799 6.5325 53.9774 8.01 54.6749 9.6525C55.3949 11.3475 55.7624 13.1475 55.7624 15C55.7624 16.8525 55.3949 18.6525 54.6749 20.3475C53.9774 21.99 52.9799 23.46 51.7124 24.735C50.4449 26.0025 48.9674 27 47.3249 27.6975C45.6299 28.4175 43.8299 28.785 41.9774 28.785H15.5774C13.7249 28.785 11.9249 28.4175 10.2299 27.6975C8.58739 27 7.11739 26.0025 5.84239 24.735C4.57489 23.4675 3.57739 21.99 2.87989 20.3475C2.15989 18.6525 1.79239 16.8525 1.79239 15C1.79239 13.1475 2.15989 11.3475 2.87989 9.6525C3.57739 8.01 4.57489 6.54 5.84239 5.265C7.10989 3.9975 8.58739 3 10.2299 2.3025C11.9249 1.5825 13.7249 1.215 15.5774 1.215H41.9774ZM41.9774 0H15.5774C7.32739 0 0.577393 6.75 0.577393 15C0.577393 23.25 7.32739 30 15.5774 30H41.9774C50.2274 30 56.9774 23.25 56.9774 15C56.9774 6.75 50.2274 0 41.9774 0Z" fill="#3C4043"/>
        <path d="M27.4727 16.065V20.6025H26.0327V9.39746H29.8502C30.8177 9.39746 31.6427 9.71996 32.3177 10.365C33.0077 11.01 33.3527 11.7975 33.3527 12.7275C33.3527 13.68 33.0077 14.4675 32.3177 15.105C31.6502 15.7425 30.8252 16.0575 29.8502 16.0575H27.4727V16.065ZM27.4727 10.7775V14.685H29.8802C30.4502 14.685 30.9302 14.49 31.3052 14.1075C31.6877 13.725 31.8827 13.26 31.8827 12.735C31.8827 12.2175 31.6877 11.76 31.3052 11.3775C30.9302 10.98 30.4577 10.785 29.8802 10.785H27.4727V10.7775Z" fill="#3C4043"/>
        <path d="M37.1177 12.6826C38.1827 12.6826 39.0227 12.9676 39.6377 13.5376C40.2527 14.1076 40.5602 14.8876 40.5602 15.8776V20.6026H39.1877V19.5376H39.1277C38.5352 20.4151 37.7402 20.8501 36.7502 20.8501C35.9027 20.8501 35.1977 20.6026 34.6277 20.1001C34.0577 19.5976 33.7727 18.9751 33.7727 18.2251C33.7727 17.4301 34.0727 16.8001 34.6727 16.3351C35.2727 15.8626 36.0752 15.6301 37.0727 15.6301C37.9277 15.6301 38.6327 15.7876 39.1802 16.1026V15.7726C39.1802 15.2701 38.9852 14.8501 38.5877 14.4976C38.1902 14.1451 37.7252 13.9726 37.1927 13.9726C36.3902 13.9726 35.7527 14.3101 35.2877 14.9926L34.0202 14.1976C34.7177 13.1851 35.7527 12.6826 37.1177 12.6826ZM35.2577 18.2476C35.2577 18.6226 35.4152 18.9376 35.7377 19.1851C36.0527 19.4326 36.4277 19.5601 36.8552 19.5601C37.4627 19.5601 38.0027 19.3351 38.4752 18.8851C38.9477 18.4351 39.1877 17.9101 39.1877 17.3026C38.7377 16.9501 38.1152 16.7701 37.3127 16.7701C36.7277 16.7701 36.2402 16.9126 35.8502 17.1901C35.4527 17.4826 35.2577 17.8351 35.2577 18.2476Z" fill="#3C4043"/>
        <path d="M48.3903 12.9297L43.5903 23.9697H42.1053L43.8903 20.1072L40.7253 12.9297H42.2928L44.5728 18.4347H44.6028L46.8228 12.9297H48.3903Z" fill="#3C4043"/>
        <path d="M21.7449 15.1501C21.7449 14.6806 21.7029 14.2313 21.6249 13.7993H15.5889V16.2743L19.0651 16.2751C18.9241 17.0986 18.4704 17.8006 17.7751 18.2686V19.8743H19.8444C21.0526 18.7561 21.7449 17.1031 21.7449 15.1501Z" fill="#4285F4"/>
        <path d="M17.7756 18.2687C17.1996 18.6572 16.4579 18.8844 15.5901 18.8844C13.9139 18.8844 12.4919 17.7549 11.9826 16.2324H9.84814V17.8884C10.9056 19.9869 13.0791 21.4269 15.5901 21.4269C17.3256 21.4269 18.7836 20.8562 19.8449 19.8737L17.7756 18.2687Z" fill="#34A853"/>
        <path d="M11.7818 15.0034C11.7818 14.5759 11.853 14.1627 11.9828 13.7742V12.1182H9.84829C9.41104 12.9859 9.16504 13.9654 9.16504 15.0034C9.16504 16.0414 9.41179 17.0209 9.84829 17.8887L11.9828 16.2327C11.853 15.8442 11.7818 15.4309 11.7818 15.0034Z" fill="#FABB05"/>
        <path d="M15.5901 11.1226C16.5374 11.1226 17.3856 11.4488 18.0554 12.0863L19.8891 10.2541C18.7754 9.21683 17.3234 8.58008 15.5901 8.58008C13.0799 8.58008 10.9056 10.0201 9.84814 12.1186L11.9826 13.7746C12.4919 12.2521 13.9139 11.1226 15.5901 11.1226Z" fill="#E94235"/>
    </g>
    <defs>
        <clipPath id="clip0_9984_14218">
            <rect width="56.475" height="30" fill="white" transform="translate(0.524902)"/>
        </clipPath>
    </defs>
</svg>
