<svg width="11" height="18" viewBox="0 0 11 18" fill="none" xmlns="http://www.w3.org/2000/svg">
    <path d="M3.86052 9.00354L10.2282 2.63561C10.4035 2.46069 10.5 2.22682 10.5 1.97745C10.5 1.72794 10.4035 1.49421 10.2282 1.31902L9.6702 0.761323C9.49514 0.585851 9.26113 0.489258 9.01176 0.489258C8.76239 0.489258 8.52866 0.585851 8.35347 0.761323L0.771759 8.34289C0.595872 8.51864 0.499556 8.75348 0.500248 9.00313C0.499556 9.25388 0.595734 9.48844 0.771759 9.66433L8.34641 17.2386C8.5216 17.414 8.75533 17.5106 9.00484 17.5106C9.25421 17.5106 9.48795 17.414 9.66328 17.2386L10.2211 16.6809C10.5841 16.3179 10.5841 15.727 10.2211 15.3641L3.86052 9.00354Z" fill="black"/>
</svg>
