<svg width="210" height="40" viewBox="0 0 210 40" fill="none" xmlns="http://www.w3.org/2000/svg">
    <path d="M28.44 6V34H22.04V11.28H12.44L12.24 17.12C12.1067 21.0933 11.7867 24.32 11.28 26.8C10.7733 29.2533 9.92 31.1467 8.72 32.48C7.54667 33.7867 5.89333 34.44 3.76 34.44C2.88 34.44 1.81333 34.2933 0.559998 34L0.959998 28.52C1.30666 28.6267 1.69333 28.68 2.12 28.68C3.66666 28.68 4.74666 27.7733 5.36 25.96C5.97333 24.12 6.36 21.2533 6.52 17.36L6.92 6H28.44Z" fill="#9EADC4"/>
    <path d="M48.7931 34.48C45.8865 34.48 43.2598 33.8533 40.9131 32.6C38.5931 31.3467 36.7665 29.6267 35.4331 27.44C34.1265 25.2267 33.4731 22.7467 33.4731 20C33.4731 17.2533 34.1265 14.7867 35.4331 12.6C36.7665 10.3867 38.5931 8.65333 40.9131 7.4C43.2598 6.14667 45.8865 5.52 48.7931 5.52C51.6998 5.52 54.3131 6.14667 56.6331 7.4C58.9531 8.65333 60.7798 10.3867 62.1131 12.6C63.4465 14.7867 64.1131 17.2533 64.1131 20C64.1131 22.7467 63.4465 25.2267 62.1131 27.44C60.7798 29.6267 58.9531 31.3467 56.6331 32.6C54.3131 33.8533 51.6998 34.48 48.7931 34.48ZM48.7931 28.96C50.4465 28.96 51.9398 28.5867 53.2731 27.84C54.6065 27.0667 55.6465 26 56.3931 24.64C57.1665 23.28 57.5531 21.7333 57.5531 20C57.5531 18.2667 57.1665 16.72 56.3931 15.36C55.6465 14 54.6065 12.9467 53.2731 12.2C51.9398 11.4267 50.4465 11.04 48.7931 11.04C47.1398 11.04 45.6465 11.4267 44.3131 12.2C42.9798 12.9467 41.9265 14 41.1531 15.36C40.4065 16.72 40.0331 18.2667 40.0331 20C40.0331 21.7333 40.4065 23.28 41.1531 24.64C41.9265 26 42.9798 27.0667 44.3131 27.84C45.6465 28.5867 47.1398 28.96 48.7931 28.96Z" fill="#9EADC4"/>
    <path d="M88.825 11.28H75.505L75.545 34H69.105V6H88.865L88.825 11.28Z" fill="#9EADC4"/>
    <path d="M103.324 34.48C100.418 34.48 97.791 33.8533 95.4444 32.6C93.1244 31.3467 91.2977 29.6267 89.9644 27.44C88.6577 25.2267 88.0044 22.7467 88.0044 20C88.0044 17.2533 88.6577 14.7867 89.9644 12.6C91.2977 10.3867 93.1244 8.65333 95.4444 7.4C97.791 6.14667 100.418 5.52 103.324 5.52C106.231 5.52 108.844 6.14667 111.164 7.4C113.484 8.65333 115.311 10.3867 116.644 12.6C117.978 14.7867 118.644 17.2533 118.644 20C118.644 22.7467 117.978 25.2267 116.644 27.44C115.311 29.6267 113.484 31.3467 111.164 32.6C108.844 33.8533 106.231 34.48 103.324 34.48ZM103.324 28.96C104.978 28.96 106.471 28.5867 107.804 27.84C109.138 27.0667 110.178 26 110.924 24.64C111.698 23.28 112.084 21.7333 112.084 20C112.084 18.2667 111.698 16.72 110.924 15.36C110.178 14 109.138 12.9467 107.804 12.2C106.471 11.4267 104.978 11.04 103.324 11.04C101.671 11.04 100.178 11.4267 98.8444 12.2C97.511 12.9467 96.4577 14 95.6844 15.36C94.9377 16.72 94.5644 18.2667 94.5644 20C94.5644 21.7333 94.9377 23.28 95.6844 24.64C96.4577 26 97.511 27.0667 98.8444 27.84C100.178 28.5867 101.671 28.96 103.324 28.96Z" fill="#9EADC4"/>
    <path d="M144.646 11.28H135.686V34H129.286V11.28H120.366V6H144.646V11.28Z" fill="#9EADC4"/>
    <path d="M148.714 6H155.154V24.24L168.514 6H174.594V34H168.194V15.8L154.834 34H148.714V6Z" fill="#9EADC4"/>
    <path d="M207.086 6V34H200.646V11.28H188.006V34H181.566V6H207.086Z" fill="#9EADC4"/>
</svg>
