<svg width="21" height="22" viewBox="0 0 21 22" fill="none" xmlns="http://www.w3.org/2000/svg">
    <path d="M4.22908 14.125C5.177 14.125 6.03429 13.7521 6.68429 13.1563L13.2051 16.8823C13.1279 17.1723 13.087 17.4708 13.0833 17.7709C13.0833 19.7813 14.7187 21.4167 16.7291 21.4167C18.7395 21.4167 20.3749 19.7813 20.3749 17.7709C20.3749 15.7605 18.7395 14.125 16.7291 14.125C15.7812 14.125 14.9239 14.498 14.2739 15.0938L7.75304 11.3678C7.81867 11.1105 7.86034 10.8448 7.86554 10.5677L14.2728 6.90629C14.9239 7.50212 15.7812 7.87504 16.7291 7.87504C18.7395 7.87504 20.3749 6.23962 20.3749 4.22921C20.3749 2.21879 18.7395 0.583374 16.7291 0.583374C14.7187 0.583374 13.0833 2.21879 13.0833 4.22921C13.0833 4.53754 13.1333 4.83129 13.2051 5.11775L7.28429 8.50212C6.95486 7.99101 6.50267 7.57052 5.96901 7.27903C5.43534 6.98754 4.83717 6.83433 4.22908 6.83337C2.21867 6.83337 0.583252 8.46879 0.583252 10.4792C0.583252 12.4896 2.21867 14.125 4.22908 14.125ZM16.7291 16.2084C17.5905 16.2084 18.2916 16.9094 18.2916 17.7709C18.2916 18.6323 17.5905 19.3334 16.7291 19.3334C15.8676 19.3334 15.1666 18.6323 15.1666 17.7709C15.1666 16.9094 15.8676 16.2084 16.7291 16.2084ZM16.7291 2.66671C17.5905 2.66671 18.2916 3.36775 18.2916 4.22921C18.2916 5.09067 17.5905 5.79171 16.7291 5.79171C15.8676 5.79171 15.1666 5.09067 15.1666 4.22921C15.1666 3.36775 15.8676 2.66671 16.7291 2.66671ZM4.22908 8.91671C5.09054 8.91671 5.79158 9.61775 5.79158 10.4792C5.79158 11.3407 5.09054 12.0417 4.22908 12.0417C3.36763 12.0417 2.66659 11.3407 2.66659 10.4792C2.66659 9.61775 3.36763 8.91671 4.22908 8.91671Z" fill="black"/>
    <path fill-rule="evenodd" clip-rule="evenodd" d="M5.79158 10.4792C5.79158 11.3422 5.09203 12.0417 4.22908 12.0417C5.09054 12.0417 5.79158 11.3407 5.79158 10.4792ZM4.22908 8.91671C5.09054 8.91671 5.79158 9.61775 5.79158 10.4792C5.79158 9.61626 5.09203 8.91671 4.22908 8.91671ZM4.22908 12.0417C3.36763 12.0417 2.66659 11.3407 2.66659 10.4792C2.66659 11.3422 3.36614 12.0417 4.22908 12.0417ZM2.66659 10.4792C2.66659 9.61775 3.36763 8.91671 4.22908 8.91671C3.36614 8.91671 2.66659 9.61626 2.66659 10.4792Z" fill="black"/>
    <path fill-rule="evenodd" clip-rule="evenodd" d="M18.2916 4.22921C18.2916 5.09215 17.592 5.79171 16.7291 5.79171C17.5905 5.79171 18.2916 5.09067 18.2916 4.22921ZM16.7291 5.79171C15.8661 5.79171 15.1666 5.09215 15.1666 4.22921C15.1666 5.09067 15.8676 5.79171 16.7291 5.79171ZM16.7291 2.66671C17.5905 2.66671 18.2916 3.36775 18.2916 4.22921C18.2916 3.36626 17.592 2.66671 16.7291 2.66671ZM15.1666 4.22921C15.1666 3.36626 15.8661 2.66671 16.7291 2.66671C15.8676 2.66671 15.1666 3.36775 15.1666 4.22921Z" fill="black"/>
    <path fill-rule="evenodd" clip-rule="evenodd" d="M18.2916 17.7709C18.2916 18.6338 17.592 19.3334 16.7291 19.3334C17.5905 19.3334 18.2916 18.6323 18.2916 17.7709ZM16.7291 19.3334C15.8661 19.3334 15.1666 18.6338 15.1666 17.7709C15.1666 18.6323 15.8676 19.3334 16.7291 19.3334ZM16.7291 16.2084C17.5905 16.2084 18.2916 16.9094 18.2916 17.7709C18.2916 16.9079 17.592 16.2084 16.7291 16.2084ZM15.1666 17.7709C15.1666 16.9079 15.8661 16.2084 16.7291 16.2084C15.8676 16.2084 15.1666 16.9094 15.1666 17.7709Z" fill="black"/>
</svg>
