<svg width="17" height="18" viewBox="0 0 17 18" fill="none" xmlns="http://www.w3.org/2000/svg">
    <path d="M3.75004 11.5001C4.50837 11.5001 5.19421 11.2017 5.71421 10.7251L10.9309 13.7059C10.8691 13.9379 10.8364 14.1767 10.8334 14.4167C10.8334 16.0251 12.1417 17.3334 13.75 17.3334C15.3584 17.3334 16.6667 16.0251 16.6667 14.4167C16.6667 12.8084 15.3584 11.5001 13.75 11.5001C12.9917 11.5001 12.3059 11.7984 11.7859 12.2751L6.56921 9.29425C6.62171 9.08842 6.65504 8.87591 6.65921 8.65425L11.785 5.72508C12.3059 6.20175 12.9917 6.50008 13.75 6.50008C15.3584 6.50008 16.6667 5.19175 16.6667 3.58341C16.6667 1.97508 15.3584 0.666748 13.75 0.666748C12.1417 0.666748 10.8334 1.97508 10.8334 3.58341C10.8334 3.83008 10.8734 4.06508 10.9309 4.29425L6.19421 7.00175C5.93066 6.59286 5.56891 6.25647 5.14198 6.02328C4.71504 5.79008 4.23651 5.66751 3.75004 5.66675C2.14171 5.66675 0.833374 6.97508 0.833374 8.58342C0.833374 10.1917 2.14171 11.5001 3.75004 11.5001ZM13.75 13.1667C14.4392 13.1667 15 13.7276 15 14.4167C15 15.1059 14.4392 15.6667 13.75 15.6667C13.0609 15.6667 12.5 15.1059 12.5 14.4167C12.5 13.7276 13.0609 13.1667 13.75 13.1667ZM13.75 2.33341C14.4392 2.33341 15 2.89425 15 3.58341C15 4.27258 14.4392 4.83341 13.75 4.83341C13.0609 4.83341 12.5 4.27258 12.5 3.58341C12.5 2.89425 13.0609 2.33341 13.75 2.33341ZM3.75004 7.33341C4.43921 7.33341 5.00004 7.89425 5.00004 8.58342C5.00004 9.27258 4.43921 9.83342 3.75004 9.83342C3.06087 9.83342 2.50004 9.27258 2.50004 8.58342C2.50004 7.89425 3.06087 7.33341 3.75004 7.33341Z" fill="#9EADC4"/>
    <path fill-rule="evenodd" clip-rule="evenodd" d="M5.00004 8.58342C5.00004 9.27377 4.4404 9.83342 3.75004 9.83342C4.43921 9.83342 5.00004 9.27258 5.00004 8.58342ZM3.75004 7.33341C4.43921 7.33341 5.00004 7.89425 5.00004 8.58342C5.00004 7.89306 4.4404 7.33341 3.75004 7.33341ZM3.75004 9.83342C3.06087 9.83342 2.50004 9.27258 2.50004 8.58342C2.50004 9.27377 3.05968 9.83342 3.75004 9.83342ZM2.50004 8.58342C2.50004 7.89425 3.06087 7.33341 3.75004 7.33341C3.05968 7.33341 2.50004 7.89306 2.50004 8.58342Z" fill="#9EADC4"/>
    <path fill-rule="evenodd" clip-rule="evenodd" d="M15 3.58341C15 4.27377 14.4404 4.83341 13.75 4.83341C14.4392 4.83341 15 4.27258 15 3.58341ZM13.75 4.83341C13.0597 4.83341 12.5 4.27377 12.5 3.58341C12.5 4.27258 13.0609 4.83341 13.75 4.83341ZM13.75 2.33341C14.4392 2.33341 15 2.89425 15 3.58341C15 2.89306 14.4404 2.33341 13.75 2.33341ZM12.5 3.58341C12.5 2.89306 13.0597 2.33341 13.75 2.33341C13.0609 2.33341 12.5 2.89425 12.5 3.58341Z" fill="#9EADC4"/>
    <path fill-rule="evenodd" clip-rule="evenodd" d="M15 14.4167C15 15.1071 14.4404 15.6667 13.75 15.6667C14.4392 15.6667 15 15.1059 15 14.4167ZM13.75 15.6667C13.0597 15.6667 12.5 15.1071 12.5 14.4167C12.5 15.1059 13.0609 15.6667 13.75 15.6667ZM13.75 13.1667C14.4392 13.1667 15 13.7276 15 14.4167C15 13.7264 14.4404 13.1667 13.75 13.1667ZM12.5 14.4167C12.5 13.7264 13.0597 13.1667 13.75 13.1667C13.0609 13.1667 12.5 13.7276 12.5 14.4167Z" fill="#9EADC4"/>
</svg>
