<svg width="30" height="30" viewBox="0 0 30 30" fill="none" xmlns="http://www.w3.org/2000/svg">
    <path d="M29.7168 10.5351C29.3483 7.75332 28.3636 5.23222 26.6268 3.38572H26.6261C24.7796 1.64942 22.2585 0.664719 19.4764 0.296319C16.8187 -0.0560807 15.0099 0.0310193 15.0099 0.0310193C15.0099 0.0310193 13.2001 -0.0560807 10.5426 0.296219C7.76034 0.664619 5.23934 1.64942 3.39244 3.38562C1.65604 5.23212 0.670844 7.75322 0.302344 10.5351C-0.0499561 13.1919 0.0374439 15.0014 0.0374439 15.0014C0.0374439 15.0014 -0.0499561 16.8102 0.302344 19.4678C0.670844 22.2497 1.65604 24.7701 3.39244 26.6164V26.6171C5.23934 28.3532 7.76034 29.3378 10.5425 29.7067C13.2 30.0589 15.0098 29.9715 15.0098 29.9715C15.0098 29.9715 16.8186 30.0589 19.4763 29.7067C22.2584 29.3379 24.7795 28.3533 26.626 26.6171L26.6267 26.6164C28.3635 24.7701 29.3483 22.2497 29.7167 19.4678C30.0688 16.8102 29.9816 15.0014 29.9816 15.0014C29.9816 15.0014 30.0688 13.1918 29.7168 10.5351Z" fill="#1E4BC6"/>
    <path d="M5.54517 10.6123H8.23527C8.64447 10.6123 9.02097 10.6859 9.36537 10.8328C9.70997 10.9797 10.0073 11.1787 10.259 11.4301C10.5098 11.6813 10.7071 11.9771 10.8505 12.3179C10.994 12.6585 11.0659 13.0225 11.0659 13.4096C11.0659 13.7971 10.994 14.1629 10.8505 14.5075C10.7072 14.8516 10.5098 15.1493 10.259 15.4002C10.0073 15.6515 9.70787 15.8511 9.35997 15.9977C9.01227 16.145 8.63367 16.2184 8.22467 16.2184H7.00867V18.4671H5.54517V10.6123ZM7.00867 11.968V14.8626H8.12767C8.34307 14.8626 8.54037 14.8249 8.71937 14.7496C8.89857 14.6743 9.05297 14.5701 9.18237 14.4373C9.31177 14.3049 9.41207 14.1505 9.48357 13.9747C9.55557 13.7989 9.59157 13.6108 9.59157 13.4096C9.59157 13.2092 9.55557 13.0206 9.48357 12.8448C9.41207 12.669 9.31177 12.517 9.18237 12.3876C9.05297 12.2585 8.89867 12.1562 8.71937 12.081C8.54037 12.0057 8.34307 11.968 8.12767 11.968H7.00867Z" fill="white"/>
    <path d="M14.4449 18.4776C14.0646 18.4776 13.6897 18.4074 13.3205 18.2656C12.9504 18.1239 12.6189 17.9182 12.3247 17.6483C12.0305 17.3787 11.7937 17.0484 11.6143 16.6576C11.435 16.2674 11.3455 15.8228 11.3455 15.3251C11.3455 14.8202 11.4333 14.3729 11.609 13.982C11.7848 13.5914 12.0178 13.2609 12.3088 12.9913C12.5991 12.7219 12.9329 12.5161 13.3092 12.3744C13.6861 12.2328 14.0717 12.1616 14.4663 12.1616C14.882 12.1616 15.266 12.2371 15.6177 12.3875C15.969 12.538 16.2599 12.7429 16.4897 13.003V12.1727H17.9424V18.4672H16.4897V17.5728C16.2599 17.8542 15.966 18.0751 15.6067 18.2361C15.2482 18.3978 14.8609 18.4776 14.4449 18.4776ZM14.6816 17.144C14.954 17.144 15.2051 17.0965 15.4351 17.0023C15.6645 16.908 15.8617 16.7765 16.0265 16.6081C16.1916 16.4394 16.3224 16.244 16.4194 16.0217C16.5166 15.8002 16.5651 15.5608 16.5651 15.3041C16.5651 15.0551 16.5166 14.8191 16.4194 14.5968C16.3224 14.3749 16.1917 14.181 16.0265 14.0159C15.8617 13.8506 15.6645 13.7211 15.4351 13.627C15.2051 13.5326 14.9539 13.4854 14.6816 13.4854C14.416 13.4854 14.1669 13.5326 13.9335 13.627C13.7002 13.7211 13.4978 13.8489 13.3256 14.0105C13.1534 14.1726 13.0189 14.3646 12.9219 14.587C12.825 14.8093 12.7768 15.0485 12.7768 15.304C12.7768 15.5606 12.825 15.8015 12.9219 16.0271C13.0189 16.2527 13.1534 16.4475 13.3256 16.6127C13.4977 16.7785 13.7002 16.9078 13.9335 17.0022C14.1669 17.0966 14.416 17.144 14.6816 17.144Z" fill="white"/>
    <path d="M20.9987 18.1947L18.416 12.1724H19.9656L21.7194 16.4793L23.3772 12.1724H24.9053L21.149 21.3613H19.6755L20.9987 18.1947Z" fill="white"/>
</svg>
