<svg width="21" height="23" viewBox="0 0 21 23" fill="none" xmlns="http://www.w3.org/2000/svg">
    <path fill-rule="evenodd" clip-rule="evenodd" d="M6.76446 0.841419C7.14314 0.46274 7.65674 0.25 8.19227 0.25L12.8077 0.25C13.3432 0.25 13.8568 0.46274 14.2355 0.841419C14.6141 1.2201 14.8269 1.7337 14.8269 2.26923V4.86538L19.7307 4.86538C20.2087 4.86538 20.5961 5.25283 20.5961 5.73077C20.5961 6.20871 20.2087 6.59615 19.7307 6.59615H19.3827L18.4397 19.8022C18.4397 19.8023 18.4397 19.8021 18.4397 19.8022C18.3827 20.6027 18.0245 21.352 17.4372 21.8989C16.8499 22.4459 16.0771 22.75 15.2746 22.75L5.72537 22.75C4.9228 22.75 4.15004 22.4459 3.56273 21.8989C2.97547 21.352 2.61726 20.6029 2.56024 19.8024C2.56023 19.8023 2.56024 19.8025 2.56024 19.8024L1.61724 6.59615H1.26919C0.791254 6.59615 0.403809 6.20871 0.403809 5.73077C0.403809 5.25283 0.791254 4.86538 1.26919 4.86538L6.17304 4.86538L6.17304 2.26923C6.17304 1.7337 6.38578 1.2201 6.76446 0.841419ZM7.90381 4.86538L13.0961 4.86538V2.26923C13.0961 2.19273 13.0657 2.11935 13.0116 2.06526C12.9575 2.01116 12.8842 1.98077 12.8077 1.98077L8.19227 1.98077C8.11577 1.98077 8.04239 2.01116 7.9883 2.06526C7.9342 2.11935 7.90381 2.19273 7.90381 2.26923L7.90381 4.86538ZM3.35242 6.59615L4.28661 19.6791C4.31251 20.043 4.47535 20.3838 4.74231 20.6324C5.00927 20.881 5.36052 21.0192 5.72535 21.0192L15.2746 21.0192C15.6394 21.0192 15.9907 20.881 16.2576 20.6324C16.5246 20.3838 16.6874 20.0432 16.7133 19.6793L17.6475 6.59615L3.35242 6.59615ZM8.19227 9.48077C8.67021 9.48077 9.05765 9.86821 9.05765 10.3462V17.2692C9.05765 17.7472 8.67021 18.1346 8.19227 18.1346C7.71433 18.1346 7.32689 17.7472 7.32689 17.2692L7.32689 10.3462C7.32689 9.86821 7.71433 9.48077 8.19227 9.48077ZM12.8077 9.48077C13.2856 9.48077 13.673 9.86821 13.673 10.3462V17.2692C13.673 17.7472 13.2856 18.1346 12.8077 18.1346C12.3297 18.1346 11.9423 17.7472 11.9423 17.2692V10.3462C11.9423 9.86821 12.3297 9.48077 12.8077 9.48077Z" fill="black"/>
</svg>
