<svg width="151" height="50" viewBox="0 0 151 50" fill="none" xmlns="http://www.w3.org/2000/svg">
    <g clip-path="url(#clip0_12584_355)">
        <path d="M138.293 0.000162499H12.5433C12.0849 0.000162499 11.6321 0.0001625 11.1749 0.00266249C10.7922 0.00516248 10.4126 0.012425 10.0262 0.0185374C9.18686 0.0284147 8.34948 0.102257 7.52135 0.239424C6.69439 0.379577 5.89332 0.643805 5.14526 1.02317C4.39811 1.40575 3.71542 1.90287 3.12195 2.49649C2.52537 3.08845 2.02807 3.77267 1.64918 4.52285C1.26925 5.27153 1.0058 6.07382 0.867937 6.90199C0.728763 7.72912 0.653873 8.56579 0.643937 9.40448C0.632337 9.78773 0.631112 10.1723 0.625 10.5556V39.4483C0.631112 39.8364 0.632337 40.2124 0.643937 40.6007C0.653876 41.4393 0.728766 42.2759 0.867937 43.103C1.00542 43.9317 1.26888 44.7344 1.64918 45.4834C2.0279 46.2311 2.52527 46.9126 3.12195 47.5013C3.71317 48.0975 4.3963 48.595 5.14526 48.9746C5.89332 49.355 6.69429 49.6208 7.52135 49.7631C8.34962 49.8992 9.18692 49.9731 10.0262 49.9841C10.4126 49.9926 10.7922 49.9975 11.1749 49.9975C11.6321 50 12.085 50 12.5433 50H138.293C138.742 50 139.199 50 139.648 49.9975C140.029 49.9975 140.42 49.9926 140.8 49.9841C141.638 49.9737 142.474 49.8998 143.3 49.7631C144.13 49.6198 144.934 49.3541 145.686 48.9746C146.434 48.5948 147.116 48.0973 147.707 47.5013C148.302 46.9103 148.801 46.2293 149.184 45.4834C149.562 44.7339 149.823 43.9312 149.958 43.103C150.097 42.2758 150.175 41.4394 150.19 40.6007C150.195 40.2124 150.195 39.8364 150.195 39.4483C150.205 38.9942 150.205 38.5425 150.205 38.081V11.9203C150.205 11.4625 150.205 11.0084 150.195 10.5556C150.195 10.1723 150.195 9.78773 150.19 9.40443C150.175 8.56566 150.097 7.72918 149.958 6.90194C149.822 6.07424 149.561 5.27202 149.184 4.5228C148.413 3.01915 147.189 1.79519 145.686 1.02306C144.934 0.64462 144.13 0.380462 143.3 0.239312C142.474 0.101541 141.638 0.0276721 140.8 0.0183624C140.42 0.0122625 140.029 0.00493748 139.648 0.00249999C139.199 0 138.742 0 138.293 0V0.000162499Z" fill="#A6A6A6"/>
        <path d="M11.1811 48.9063C10.8002 48.9063 10.4286 48.9014 10.0507 48.8929C9.26792 48.8827 8.48698 48.8146 7.71428 48.689C6.99377 48.5649 6.29579 48.3341 5.64336 48.0042C4.99691 47.6769 4.4073 47.2479 3.89711 46.7334C3.37954 46.225 2.94864 45.6353 2.62148 44.9878C2.29072 44.336 2.06181 43.6374 1.94273 42.9163C1.81414 42.1414 1.74456 41.3579 1.73461 40.5726C1.72668 40.3089 1.71631 39.4312 1.71631 39.4312V10.5556C1.71631 10.5556 1.72736 9.69132 1.73467 9.43741C1.7442 8.65326 1.81337 7.87098 1.94158 7.09733C2.06088 6.37423 2.28997 5.6736 2.62091 5.01971C2.94686 4.3726 3.37537 3.7825 3.88983 3.27228C4.4037 2.7572 4.9952 2.32593 5.64275 1.99419C6.29368 1.6653 6.99034 1.4361 7.70939 1.31427C8.48463 1.18748 9.26829 1.11893 10.0538 1.1092L11.1817 1.09393H139.642L140.783 1.10981C141.562 1.11906 142.338 1.187 143.106 1.31304C143.833 1.4364 144.537 1.6672 145.195 1.99786C146.492 2.66641 147.548 3.72413 148.214 5.02276C148.539 5.67214 148.765 6.36705 148.883 7.0839C149.012 7.8639 149.085 8.65233 149.1 9.44291C149.104 9.79691 149.104 10.1772 149.104 10.5556C149.113 11.0243 149.113 11.4705 149.113 11.9203V38.0811C149.113 38.5352 149.113 38.9783 149.104 39.4251C149.104 39.8316 149.104 40.2039 149.099 40.5872C149.084 41.3636 149.013 42.138 148.885 42.904C148.768 43.6304 148.541 44.3344 148.21 44.9915C147.881 45.6321 147.452 46.2166 146.941 46.7237C146.43 47.2409 145.839 47.6725 145.191 48.0018C144.535 48.3343 143.832 48.566 143.106 48.689C142.334 48.8152 141.553 48.8834 140.77 48.8929C140.404 48.9014 140.02 48.9063 139.648 48.9063L138.293 48.9088L11.1811 48.9063Z" fill="black"/>
        <path d="M31.5859 25.3759C31.5994 24.3326 31.8765 23.3096 32.3915 22.4021C32.9066 21.4947 33.6428 20.7323 34.5316 20.1858C33.967 19.3794 33.222 18.7157 32.356 18.2475C31.49 17.7793 30.5267 17.5195 29.5427 17.4887C27.4437 17.2684 25.4087 18.7448 24.3391 18.7448C23.2488 18.7448 21.6019 17.5106 19.8285 17.5471C18.6814 17.5841 17.5635 17.9177 16.5836 18.5153C15.6038 19.1129 14.7954 19.9541 14.2373 20.9569C11.8199 25.1424 13.6231 31.2937 15.9388 34.677C17.0975 36.3337 18.4516 38.1842 20.2234 38.1186C21.9572 38.0467 22.6047 37.013 24.6976 37.013C26.771 37.013 27.3786 38.1186 29.1863 38.0769C31.0468 38.0467 32.219 36.4128 33.337 34.7404C34.1694 33.56 34.81 32.2553 35.235 30.8748C34.1541 30.4177 33.2317 29.6524 32.5828 28.6746C31.9339 27.6967 31.5872 26.5495 31.5859 25.3759Z" fill="white"/>
        <path d="M28.1715 15.2637C29.1859 14.046 29.6856 12.4807 29.5646 10.9005C28.0148 11.0632 26.5833 11.8039 25.5551 12.975C25.0525 13.547 24.6675 14.2126 24.4222 14.9335C24.1769 15.6545 24.0761 16.4167 24.1255 17.1767C24.9007 17.1847 25.6676 17.0166 26.3684 16.6853C27.0692 16.3539 27.6857 15.8679 28.1715 15.2637Z" fill="white"/>
        <path d="M53.5024 33.9246H47.5857L46.1648 38.1202H43.6587L49.2629 22.5977H51.8667L57.4709 38.1202H54.9221L53.5024 33.9246ZM48.1985 31.9886H52.8884L50.5764 25.1795H50.5117L48.1985 31.9886Z" fill="white"/>
        <path d="M69.574 32.4622C69.574 35.9791 67.6917 38.2386 64.8511 38.2386C64.1315 38.2762 63.4159 38.1105 62.7862 37.7603C62.1564 37.4101 61.638 36.8897 61.2903 36.2586H61.2366V41.864H58.9136V26.8031H61.1621V28.6854H61.2049C61.5686 28.0573 62.0957 27.5396 62.7303 27.1873C63.3648 26.8349 64.083 26.6612 64.8084 26.6846C67.6806 26.6847 69.574 28.9551 69.574 32.4622ZM67.1863 32.4622C67.1863 30.171 66.0022 28.6646 64.1956 28.6646C62.4207 28.6646 61.2268 30.2027 61.2268 32.4622C61.2268 34.7425 62.4207 36.2696 64.1956 36.2696C66.0022 36.2696 67.1863 34.7742 67.1863 32.4622Z" fill="white"/>
        <path d="M82.03 32.4622C82.03 35.9791 80.1477 38.2386 77.3071 38.2386C76.5876 38.2762 75.872 38.1104 75.2422 37.7603C74.6125 37.4101 74.0941 36.8897 73.7464 36.2586H73.6926V41.864H71.3696V26.803H73.6181V28.6854H73.6609C74.0246 28.0573 74.5517 27.5395 75.1863 27.1872C75.8208 26.8349 76.539 26.6612 77.2644 26.6846C80.1367 26.6846 82.03 28.9551 82.03 32.4622ZM79.6423 32.4622C79.6423 30.171 78.4583 28.6646 76.6516 28.6646C74.8767 28.6646 73.6829 30.2027 73.6829 32.4622C73.6829 34.7425 74.8767 36.2696 76.6516 36.2696C78.4583 36.2696 79.6424 34.7742 79.6424 32.4622H79.6423Z" fill="white"/>
        <path d="M90.2627 33.7953C90.4348 35.3346 91.9302 36.3452 93.9737 36.3452C95.9317 36.3452 97.3403 35.3345 97.3403 33.9466C97.3403 32.7417 96.4907 32.0203 94.479 31.5259L92.4673 31.0413C89.617 30.3528 88.2937 29.0198 88.2937 26.8567C88.2937 24.1785 90.6277 22.3389 93.9419 22.3389C97.2219 22.3389 99.4705 24.1785 99.5461 26.8567H97.2011C97.0608 25.3077 95.7803 24.3726 93.9089 24.3726C92.0376 24.3726 90.7571 25.3187 90.7571 26.6956C90.7571 27.793 91.575 28.4388 93.5757 28.9331L95.2859 29.353C98.4707 30.1062 99.7939 31.3855 99.7939 33.656C99.7939 36.56 97.4807 38.3789 93.8015 38.3789C90.3591 38.3789 88.0349 36.6028 87.8848 33.7951L90.2627 33.7953Z" fill="white"/>
        <path d="M104.807 24.1249V26.8031H106.959V28.6427H104.807V34.8817C104.807 35.8509 105.238 36.3026 106.184 36.3026C106.44 36.2981 106.695 36.2802 106.948 36.2488V38.0774C106.523 38.1569 106.091 38.1929 105.658 38.1849C103.367 38.1849 102.473 37.3243 102.473 35.1294V28.6427H100.828V26.8031H102.473V24.1249H104.807Z" fill="white"/>
        <path d="M108.206 32.4623C108.206 28.9015 110.303 26.6639 113.573 26.6639C116.854 26.6639 118.942 28.9014 118.942 32.4623C118.942 36.0328 116.865 38.2606 113.573 38.2606C110.282 38.2606 108.206 36.0328 108.206 32.4623ZM116.575 32.4623C116.575 30.0196 115.455 28.578 113.573 28.578C111.691 28.578 110.572 30.0306 110.572 32.4623C110.572 34.9146 111.691 36.3453 113.573 36.3453C115.455 36.3453 116.575 34.9146 116.575 32.4623H116.575Z" fill="white"/>
        <path d="M120.857 26.8031H123.073V28.7294H123.126C123.276 28.1278 123.629 27.5961 124.124 27.2238C124.62 26.8514 125.229 26.661 125.848 26.6847C126.116 26.6838 126.383 26.7128 126.644 26.7714V28.9442C126.306 28.841 125.954 28.7935 125.601 28.8038C125.263 28.7902 124.927 28.8497 124.614 28.9783C124.302 29.1069 124.021 29.3015 123.791 29.5489C123.561 29.7963 123.388 30.0905 123.282 30.4113C123.177 30.7321 123.142 31.072 123.18 31.4076V38.1202H120.857L120.857 26.8031Z" fill="white"/>
        <path d="M137.355 34.7962C137.042 36.8507 135.041 38.2606 132.482 38.2606C129.189 38.2606 127.146 36.0548 127.146 32.516C127.146 28.9662 129.2 26.6639 132.384 26.6639C135.515 26.6639 137.484 28.8148 137.484 32.2462V33.0421H129.491V33.1825C129.454 33.599 129.506 34.0186 129.644 34.4133C129.782 34.8081 130.002 35.1691 130.29 35.4723C130.578 35.7755 130.927 36.0139 131.314 36.1718C131.701 36.3297 132.118 36.4034 132.535 36.388C133.084 36.4395 133.635 36.3123 134.106 36.0255C134.577 35.7387 134.943 35.3076 135.149 34.7962L137.355 34.7962ZM129.502 31.4186H135.16C135.181 31.0441 135.124 30.6693 134.993 30.3178C134.862 29.9663 134.66 29.6456 134.4 29.3759C134.139 29.1062 133.825 28.8933 133.478 28.7505C133.132 28.6077 132.759 28.5382 132.384 28.5463C132.006 28.544 131.631 28.6167 131.281 28.7601C130.931 28.9035 130.612 29.1149 130.345 29.3819C130.077 29.649 129.864 29.9664 129.72 30.316C129.575 30.6655 129.501 31.0403 129.502 31.4186V31.4186Z" fill="white"/>
        <path d="M46.5476 14.0669H47.5449C47.7166 14.0883 47.8908 14.0739 48.0567 14.0246C48.2225 13.9753 48.3763 13.8921 48.5084 13.7804C48.6406 13.6687 48.7481 13.5309 48.8243 13.3756C48.9005 13.2202 48.9437 13.0508 48.9512 12.878C48.9512 12.1901 48.4336 11.7458 47.5559 11.7458C47.38 11.7212 47.201 11.7321 47.0294 11.7779C46.8578 11.8236 46.6971 11.9033 46.5568 12.0122C46.4165 12.1211 46.2994 12.257 46.2125 12.4119C46.1256 12.5667 46.0706 12.7375 46.0508 12.914H44.9558C44.9746 12.5936 45.0592 12.2805 45.2043 11.9943C45.3494 11.708 45.5518 11.4547 45.7991 11.25C46.0463 11.0454 46.333 10.8939 46.6413 10.8048C46.9497 10.7158 47.273 10.6912 47.5913 10.7326C49.0598 10.7326 50.0938 11.5547 50.0938 12.7382C50.0972 13.1346 49.9646 13.5203 49.718 13.8308C49.4714 14.1412 49.1257 14.3577 48.7388 14.4441V14.532C49.1975 14.5523 49.6295 14.7535 49.9404 15.0915C50.2513 15.4294 50.4157 15.8767 50.3977 16.3356C50.3637 16.6654 50.2643 16.9852 50.1052 17.2761C49.946 17.5671 49.7304 17.8233 49.471 18.0298C49.2115 18.2363 48.9135 18.389 48.5943 18.4788C48.2751 18.5687 47.9411 18.5939 47.6121 18.553C47.2823 18.5979 46.9468 18.576 46.6257 18.4886C46.3046 18.4011 46.0044 18.2499 45.743 18.044C45.4815 17.838 45.2642 17.5815 45.104 17.2898C44.9438 16.9981 44.844 16.6771 44.8105 16.346H45.9226C45.9897 17.0595 46.6453 17.5197 47.6121 17.5197C48.5788 17.5197 49.2099 17.0027 49.2099 16.274C49.2099 15.5349 48.6155 15.0795 47.5767 15.0795H46.5476V14.0669Z" fill="white"/>
        <path d="M51.6611 16.7806C51.6611 15.7674 52.4167 15.1833 53.7546 15.1003L55.2793 15.0124V14.5265C55.2793 13.9321 54.8874 13.5964 54.1269 13.5964C53.5068 13.5964 53.0784 13.824 52.9539 14.222H51.8784C51.9919 13.2552 52.9026 12.6351 54.1794 12.6351C55.5906 12.6351 56.3865 13.3376 56.3865 14.5265V18.3724H55.3159V17.5813H55.228C55.0496 17.8651 54.7991 18.0964 54.5021 18.2517C54.2051 18.4069 53.8722 18.4806 53.5374 18.4651C53.3011 18.4897 53.0622 18.4645 52.8363 18.3911C52.6103 18.3177 52.4023 18.1978 52.2255 18.0391C52.0487 17.8804 51.9072 17.6864 51.81 17.4696C51.7128 17.2529 51.6621 17.0181 51.6611 16.7806ZM55.2793 16.2996V15.829L53.9047 15.9169C53.1296 15.9688 52.778 16.2325 52.778 16.7287C52.778 17.2353 53.2175 17.5301 53.8218 17.5301C53.9988 17.548 54.1777 17.5301 54.3477 17.4775C54.5177 17.4249 54.6754 17.3386 54.8114 17.2238C54.9474 17.109 55.0589 16.968 55.1393 16.8093C55.2196 16.6505 55.2673 16.4772 55.2793 16.2996Z" fill="white"/>
        <path d="M59.3345 13.6787V18.3723H58.2236V12.7437H61.9297V13.6786L59.3345 13.6787Z" fill="white"/>
        <path d="M68.6616 15.5555C68.6616 17.3439 67.7571 18.4651 66.3362 18.4651C65.9874 18.4889 65.639 18.4126 65.3322 18.2451C65.0253 18.0776 64.7727 17.8259 64.604 17.5196H64.5161V20.2436H63.4053V12.7437H64.4746V13.6739H64.5576C64.7293 13.3569 64.9852 13.0936 65.2971 12.913C65.6091 12.7323 65.9648 12.6414 66.3252 12.6503C67.7571 12.6503 68.6616 13.7666 68.6616 15.5555ZM67.519 15.5555C67.519 14.3666 66.9563 13.6482 66.0151 13.6482C65.0801 13.6482 64.4954 14.3818 64.4954 15.5604C64.4954 16.7335 65.0801 17.4678 66.0103 17.4678C66.9563 17.4678 67.519 16.7494 67.519 15.5555Z" fill="white"/>
        <path d="M70.1412 20.3883V19.4319C70.2614 19.4471 70.3825 19.4541 70.5037 19.4526C70.7403 19.4701 70.9751 19.3997 71.163 19.2547C71.3509 19.1097 71.4786 18.9005 71.5217 18.6671L71.6047 18.393L69.5674 12.7437H70.7771L72.1883 17.2145H72.2762L73.6824 12.7437H74.8604L72.762 18.6048C72.2811 19.9745 71.7488 20.4139 70.6014 20.4139C70.5086 20.4139 70.2449 20.4035 70.1412 20.3883Z" fill="white"/>
        <path d="M75.7261 16.775H76.832C76.9407 17.2713 77.4058 17.53 78.0564 17.53C78.7961 17.53 79.2502 17.2041 79.2502 16.6975C79.2502 16.1549 78.8425 15.8961 78.0564 15.8961H77.2141V15.0331H78.0417C78.7131 15.0331 79.0549 14.7749 79.0549 14.3044C79.0549 13.8911 78.7241 13.5756 78.0417 13.5756C77.4204 13.5756 76.9663 13.8393 76.8942 14.2836H75.8237C75.9038 13.773 76.181 13.3143 76.5958 13.006C77.0106 12.6977 77.5298 12.5645 78.0417 12.6351C79.3796 12.6351 80.145 13.2399 80.145 14.1908C80.1513 14.4556 80.0664 14.7146 79.9047 14.9243C79.7429 15.1341 79.514 15.2819 79.2563 15.3432V15.4311C79.5631 15.4706 79.8447 15.6215 80.0477 15.8549C80.2507 16.0884 80.3609 16.3882 80.3574 16.6975C80.3574 17.7675 79.4468 18.4755 78.0564 18.4755C76.8271 18.4755 75.8286 17.9121 75.7261 16.775Z" fill="white"/>
        <path d="M81.957 18.3723V12.7437H83.0581V16.6151H83.146L85.74 12.7437H86.841V18.3723H85.74V14.4801H85.657L83.0581 18.3723L81.957 18.3723Z" fill="white"/>
        <path d="M92.9065 13.6787H91.1341V18.3723H90.022V13.6787H88.2495V12.7437H92.9065V13.6787Z" fill="white"/>
        <path d="M98.8904 16.8526C98.7391 17.367 98.4118 17.8118 97.9658 18.1095C97.5198 18.4071 96.9834 18.5386 96.4503 18.481C96.0794 18.4908 95.7109 18.4197 95.3703 18.2728C95.0297 18.1259 94.7251 17.9066 94.4777 17.6302C94.2303 17.3538 94.046 17.0268 93.9377 16.6721C93.8293 16.3173 93.7995 15.9432 93.8502 15.5757C93.8008 15.2071 93.8312 14.8322 93.9393 14.4763C94.0474 14.1205 94.2307 13.7921 94.4768 13.5132C94.7229 13.2344 95.026 13.0117 95.3656 12.8601C95.7053 12.7086 96.0735 12.6319 96.4454 12.635C98.0115 12.635 98.9576 13.705 98.9576 15.4725V15.8602H94.983V15.9224C94.9654 16.129 94.9912 16.337 95.0588 16.533C95.1264 16.7291 95.2342 16.9088 95.3754 17.0606C95.5166 17.2125 95.6879 17.3332 95.8785 17.4148C96.0691 17.4965 96.2747 17.5374 96.482 17.5349C96.7476 17.5667 97.0165 17.5187 97.2548 17.3972C97.493 17.2757 97.6897 17.0861 97.8199 16.8525L98.8904 16.8526ZM94.983 15.0386H97.8247C97.8388 14.8498 97.8132 14.6601 97.7496 14.4818C97.686 14.3035 97.5858 14.1404 97.4554 14.0031C97.3251 13.8658 97.1674 13.7573 96.9926 13.6845C96.8178 13.6117 96.6298 13.5763 96.4405 13.5805C96.2483 13.5779 96.0575 13.6138 95.8795 13.6862C95.7014 13.7585 95.5397 13.8658 95.4038 14.0018C95.268 14.1377 95.1607 14.2995 95.0884 14.4776C95.0162 14.6557 94.9803 14.8464 94.983 15.0386H94.983Z" fill="white"/>
        <path d="M103.6 12.7437H106.138C107.239 12.7437 107.885 13.3015 107.885 14.1749C107.886 14.452 107.793 14.7213 107.62 14.9378C107.447 15.1542 107.205 15.3046 106.934 15.3639V15.4517C107.263 15.4725 107.571 15.6187 107.795 15.8602C108.019 16.1017 108.141 16.42 108.137 16.7494C108.137 17.7314 107.399 18.3723 106.164 18.3723H103.6V12.7437ZM104.701 13.5963V15.0538H105.802C106.474 15.0538 106.795 14.7956 106.795 14.3196C106.795 13.8807 106.515 13.5963 105.926 13.5963L104.701 13.5963ZM104.701 15.8705V17.5196H106.018C106.675 17.5196 107.027 17.2297 107.027 16.6975C107.027 16.1342 106.629 15.8705 105.879 15.8705L104.701 15.8705Z" fill="white"/>
    </g>
    <defs>
        <clipPath id="clip0_12584_355">
            <rect width="150" height="50" fill="white" transform="translate(0.625)"/>
        </clipPath>
    </defs>
</svg>
