<svg width="18" height="14" viewBox="0 0 18 14" fill="none" xmlns="http://www.w3.org/2000/svg">
    <path d="M17.8794 6.552C17.3036 5.5534 14.1369 0.542403 8.75707 0.704338C3.78206 0.830288 0.903215 5.20254 0.120529 6.552C0.0415691 6.68876 0 6.8439 0 7.00182C0 7.15974 0.0415691 7.31487 0.120529 7.45164C0.687302 8.43224 3.71909 13.2993 9.01796 13.2993H9.24288C14.2179 13.1733 17.1057 8.8011 17.8794 7.45164C17.9584 7.31487 17.9999 7.15974 17.9999 7.00182C17.9999 6.8439 17.9584 6.68876 17.8794 6.552ZM9.19789 11.5C5.32045 11.59 2.79246 8.27031 2.00078 7.00182C2.90041 5.5534 5.24848 2.59358 8.84703 2.50362C12.7065 2.40466 15.2435 5.73333 16.0441 7.00182C15.1175 8.45024 12.7965 11.4101 9.19789 11.5Z" fill="black"/>
    <path d="M8.99996 3.85308C8.3772 3.85308 7.76842 4.03775 7.25062 4.38373C6.73281 4.72972 6.32923 5.22149 6.09091 5.79684C5.85259 6.3722 5.79023 7.00531 5.91172 7.6161C6.03322 8.2269 6.33311 8.78795 6.77347 9.22831C7.21383 9.66867 7.77488 9.96856 8.38567 10.0901C8.99647 10.2115 9.62957 10.1492 10.2049 9.91087C10.7803 9.67255 11.2721 9.26897 11.618 8.75116C11.964 8.23335 12.1487 7.62458 12.1487 7.00181C12.1487 6.16672 11.817 5.36582 11.2265 4.77532C10.636 4.18482 9.83506 3.85308 8.99996 3.85308ZM8.99996 8.35127C8.73306 8.35127 8.47216 8.27213 8.25024 8.12385C8.02833 7.97557 7.85536 7.76481 7.75322 7.51823C7.65109 7.27165 7.62436 7.00032 7.67643 6.73855C7.7285 6.47678 7.85702 6.23633 8.04575 6.0476C8.23448 5.85888 8.47493 5.73035 8.7367 5.67828C8.99847 5.62622 9.2698 5.65294 9.51638 5.75508C9.76296 5.85721 9.97372 6.03018 10.122 6.2521C10.2703 6.47401 10.3494 6.73492 10.3494 7.00181C10.3494 7.35971 10.2072 7.70295 9.95417 7.95603C9.7011 8.2091 9.35786 8.35127 8.99996 8.35127Z" fill="black"/>
</svg>
