<svg width="19" height="21" viewBox="0 0 19 21" fill="none" xmlns="http://www.w3.org/2000/svg">
    <path fill-rule="evenodd" clip-rule="evenodd" d="M9.3655 0.5C2.80274 0.5 2.80293 10.134 9.3655 10.134C15.9244 10.134 15.9291 0.5 9.3655 0.5ZM9.3655 2.27778C13.6374 2.27778 13.6374 8.35624 9.3655 8.35624C5.09373 8.35624 5.09357 2.27778 9.3655 2.27778Z" fill="#9EADC4"/>
    <path fill-rule="evenodd" clip-rule="evenodd" d="M15.2445 10.4223C13.9051 9.92523 13.1469 10.3316 12.0005 11.0187C10.5024 11.914 8.49769 11.9156 6.99911 11.0189C5.85268 10.3317 5.09421 9.92475 3.75479 10.4224C2.83819 10.7628 2.20052 11.3478 1.70903 12.1596C1.03726 13.2688 0.742902 14.5952 0.648246 15.8794C0.54942 17.2155 0.576231 18.6072 1.65714 19.5729C2.34621 20.188 3.25799 20.5 4.36676 20.5H14.6333C15.7421 20.5 16.6535 20.1881 17.3428 19.5729C18.424 18.6078 18.4512 17.2149 18.3513 15.8789C18.2566 14.597 17.9613 13.2666 17.2904 12.1596C16.7985 11.3479 16.1622 10.7634 15.2445 10.4223ZM6.08415 12.5435C5.47224 12.1767 5.09123 11.8225 4.37468 12.0888C2.5674 12.7599 2.38451 15.4137 2.38451 17.0604C2.38451 18.2136 3.29942 18.7222 4.36676 18.7222H14.6333C15.701 18.7222 16.6156 18.2135 16.6156 17.0602C16.6148 15.4137 16.4309 12.7609 14.6249 12.0887C14.0847 11.8877 13.2338 12.0568 12.5481 12.5215C10.6118 13.8333 8.38823 13.8333 6.08415 12.5435Z" fill="#9EADC4"/>
</svg>
