<svg width="19" height="18" viewBox="0 0 19 18" fill="none" xmlns="http://www.w3.org/2000/svg">
    <path fill-rule="evenodd" clip-rule="evenodd" d="M15.8 1.44H13.37C12.9724 1.44 12.65 1.11764 12.65 0.72C12.65 0.322355 12.9724 0 13.37 0H15.8C17.2912 0 18.5 1.20883 18.5 2.7V5.13C18.5 5.52765 18.1776 5.85 17.78 5.85C17.3824 5.85 17.06 5.52765 17.06 5.13V2.7C17.06 2.00412 16.4959 1.44 15.8 1.44ZM17.78 12.15C17.3824 12.15 17.06 12.4724 17.06 12.87V15.3C17.06 15.9959 16.4959 16.56 15.8 16.56H13.37C12.9724 16.56 12.65 16.8824 12.65 17.28C12.65 17.6776 12.9724 18 13.37 18H15.8C17.2912 18 18.5 16.7912 18.5 15.3V12.87C18.5 12.4724 18.1776 12.15 17.78 12.15ZM3.2 0H5.63C6.02765 0 6.35 0.322355 6.35 0.72C6.35 1.11764 6.02765 1.44 5.63 1.44H3.2C2.50412 1.44 1.94 2.00412 1.94 2.7V5.13C1.94 5.52765 1.61764 5.85 1.22 5.85C0.822355 5.85 0.5 5.52765 0.5 5.13V2.7C0.5 1.20883 1.70883 0 3.2 0ZM1.22 12.15C0.822355 12.15 0.5 12.4724 0.5 12.87V15.3C0.5 16.7912 1.70883 18 3.2 18H5.63C6.02765 18 6.35 17.6776 6.35 17.28C6.35 16.8824 6.02765 16.56 5.63 16.56H3.2C2.50412 16.56 1.94 15.9959 1.94 15.3V12.87C1.94 12.4724 1.61764 12.15 1.22 12.15Z" fill="#9EADC4"/>
    <path d="M9.5 15C9.61453 15 9.72676 14.9699 9.82389 14.9131L14.7128 12.056C14.8915 11.9516 15 11.7685 15 11.5714V6.42857C15 6.23155 14.8915 6.04842 14.7128 5.944L9.82389 3.08686C9.62572 2.97105 9.37428 2.97105 9.17611 3.08686L4.28722 5.944C4.10854 6.04842 4 6.23155 4 6.42857V11.5714C4 11.7685 4.10854 11.9516 4.28722 12.056L9.17611 14.9131C9.27324 14.9699 9.38547 15 9.5 15ZM13.7778 11.2549L10.1111 13.4V9.60286L13.7778 7.46V11.2549ZM9.5 4.24514L13.2357 6.42857L9.5 8.612L5.76428 6.42857L9.5 4.24514ZM8.88889 13.4L5.22222 11.2571V7.46L8.88889 9.60286V13.4Z" fill="#9EADC4"/>
</svg>
