<svg width="18" height="18" viewBox="0 0 18 18" fill="none" xmlns="http://www.w3.org/2000/svg">
    <path fill-rule="evenodd" clip-rule="evenodd" d="M17.9999 8.85936V6.04686C17.9999 5.65863 17.6851 5.34373 17.2968 5.34373H14.8288L11.1135 0.286862C10.8835 -0.0261107 10.4435 -0.093402 10.1305 0.136624C9.81754 0.366513 9.75024 0.806516 9.98013 1.11949L13.0839 5.34373H4.94207L8.04571 1.11949C8.2756 0.806516 8.20831 0.366513 7.89534 0.136624C7.58236 -0.093402 7.14236 -0.0259733 6.91247 0.286862L3.19703 5.34373H0.703126C0.314759 5.34373 0 5.65849 0 6.04686V8.85936C0 9.24772 0.314759 9.56248 0.703126 9.56248H1.17732L1.89157 15.5222C2.0609 16.9347 3.26143 18 4.68417 18H13.3722C14.8055 18 16.007 16.9258 16.1671 15.5016L16.8344 9.56248H17.2968C17.6851 9.56248 17.9999 9.24772 17.9999 8.85936ZM2.5936 9.56248L3.28794 15.3549C3.37253 16.0612 3.9728 16.5937 4.68417 16.5937H13.3722C14.0888 16.5937 14.6896 16.0566 14.7696 15.3445L15.4193 9.56248H2.5936ZM16.5938 6.74998V8.15623H1.40625V6.74998H16.5938Z" fill="white"/>
    <path d="M10.1093 14.4844V11.6719C10.1093 11.2835 10.4241 10.9688 10.8125 10.9688C11.2007 10.9688 11.5156 11.2835 11.5156 11.6719V14.4844C11.5156 14.8727 11.2007 15.1875 10.8125 15.1875C10.4241 15.1875 10.1093 14.8727 10.1093 14.4844Z" fill="white"/>
    <path d="M6.48429 14.4844V11.6719C6.48429 11.2835 6.79905 10.9688 7.18742 10.9688C7.57566 10.9688 7.89055 11.2835 7.89055 11.6719V14.4844C7.89055 14.8727 7.57566 15.1875 7.18742 15.1875C6.79905 15.1875 6.48429 14.8727 6.48429 14.4844Z" fill="white"/>
</svg>
