<svg width="14" height="14" viewBox="0 0 14 14" fill="none" xmlns="http://www.w3.org/2000/svg">
    <path d="M9.58041 4.64586C9.58041 4.58038 9.52683 4.52681 9.46136 4.52681L8.47921 4.53128L7.00005 6.29467L5.52237 4.53276L4.53874 4.5283C4.47326 4.5283 4.41969 4.58038 4.41969 4.64735C4.41969 4.67562 4.43011 4.70241 4.44797 4.72473L6.38398 7.03127L4.44797 9.33634C4.42998 9.35814 4.42001 9.38545 4.41969 9.41372C4.41969 9.47919 4.47326 9.53276 4.53874 9.53276L5.52237 9.5283L7.00005 7.76491L8.47773 9.52681L9.45987 9.53127C9.52535 9.53127 9.57892 9.47919 9.57892 9.41223C9.57892 9.38395 9.5685 9.35717 9.55064 9.33485L7.61761 7.02979L9.55362 4.72324C9.57148 4.70241 9.58041 4.67413 9.58041 4.64586Z" fill="white"/>
    <path d="M7.00004 0.333374C3.31849 0.333374 0.333374 3.31849 0.333374 7.00004C0.333374 10.6816 3.31849 13.6667 7.00004 13.6667C10.6816 13.6667 13.6667 10.6816 13.6667 7.00004C13.6667 3.31849 10.6816 0.333374 7.00004 0.333374ZM7.00004 12.5358C3.94349 12.5358 1.46433 10.0566 1.46433 7.00004C1.46433 3.94349 3.94349 1.46433 7.00004 1.46433C10.0566 1.46433 12.5358 3.94349 12.5358 7.00004C12.5358 10.0566 10.0566 12.5358 7.00004 12.5358Z" fill="white"/>
</svg>
