<svg width="23" height="21" viewBox="0 0 23 21" fill="none" xmlns="http://www.w3.org/2000/svg">
    <path fill-rule="evenodd" clip-rule="evenodd" d="M11.9065 18.5623L11.9098 18.5593C14.8988 15.8144 17.2197 13.6805 18.7986 11.7013C20.3513 9.75486 21.004 8.17666 20.9465 6.56544L20.9464 6.56406C20.8976 5.16508 20.1831 3.84477 19.0869 3.09037L19.082 3.08705C17.0045 1.6473 14.3638 2.26535 12.8798 4.02106L11.4997 5.65382L10.1196 4.02106C8.59773 2.22061 5.89167 1.72649 3.91251 3.09037C2.8167 3.8445 2.10231 5.16411 2.05299 6.56252C1.99996 8.17635 2.6547 9.75602 4.20474 11.6981C5.78192 13.6742 8.10102 15.8035 11.0901 18.537L11.0932 18.5399C11.3787 18.8022 11.6319 18.812 11.9065 18.5623ZM0.254016 6.50243C0.107822 10.9128 3.96509 14.4478 9.86907 19.8471C10.854 20.7522 12.2318 20.695 13.1982 19.8074C19.0639 14.4207 22.9022 10.8958 22.7454 6.50243C22.6779 4.57007 21.6995 2.71727 20.1139 1.62606C17.7239 -0.0301984 14.882 0.273026 12.8321 1.67585C12.3356 2.01561 11.8856 2.41987 11.4997 2.87641C11.1136 2.41969 10.6634 2.01573 10.1667 1.67651C8.11685 0.276539 5.27529 -0.0208961 2.8855 1.62606C1.29986 2.71727 0.32149 4.57007 0.254016 6.50243Z" fill="black"/>
</svg>
