<svg width="23" height="24" viewBox="0 0 23 24" fill="none" xmlns="http://www.w3.org/2000/svg">
    <path d="M22.6824 21.6327L15.3784 14.3287C16.5118 12.8634 17.1249 11.0718 17.1249 9.18746C17.1249 6.93185 16.2446 4.81686 14.6527 3.22218C13.0609 1.6275 10.9403 0.75 8.68746 0.75C6.43466 0.75 4.31404 1.63031 2.72218 3.22218C1.1275 4.81404 0.25 6.93185 0.25 9.18746C0.25 11.4403 1.13031 13.5609 2.72218 15.1527C4.31404 16.7474 6.43185 17.6249 8.68746 17.6249C10.5718 17.6249 12.3606 17.0118 13.8259 15.8812L21.1299 23.1824C21.1513 23.2038 21.1768 23.2208 21.2047 23.2324C21.2327 23.244 21.2627 23.25 21.293 23.25C21.3233 23.25 21.3533 23.244 21.3813 23.2324C21.4093 23.2208 21.4347 23.2038 21.4562 23.1824L22.6824 21.959C22.7038 21.9376 22.7208 21.9121 22.7324 21.8841C22.744 21.8561 22.75 21.8261 22.75 21.7958C22.75 21.7655 22.744 21.7355 22.7324 21.7076C22.7208 21.6796 22.7038 21.6541 22.6824 21.6327V21.6327ZM13.1424 13.6424C11.9499 14.8321 10.3693 15.4874 8.68746 15.4874C7.0056 15.4874 5.42498 14.8321 4.23248 13.6424C3.0428 12.4499 2.38749 10.8693 2.38749 9.18746C2.38749 7.5056 3.0428 5.92217 4.23248 4.73248C5.42498 3.5428 7.0056 2.88749 8.68746 2.88749C10.3693 2.88749 11.9528 3.53999 13.1424 4.73248C14.3321 5.92498 14.9874 7.5056 14.9874 9.18746C14.9874 10.8693 14.3321 12.4528 13.1424 13.6424Z" fill="black"/>
</svg>
