<svg width="16" height="16" viewBox="0 0 16 16" fill="none" xmlns="http://www.w3.org/2000/svg">
    <path d="M16 7.99999C16 8.63118 15.4883 9.14285 14.8571 9.14285H9.14285V14.8571C9.14285 15.4883 8.63118 16 7.99999 16C7.36881 16 6.85714 15.4883 6.85714 14.8571V9.14285H1.14286C0.511676 9.14285 0 8.63118 0 7.99999C0 7.36881 0.511674 6.85714 1.14286 6.85714H6.85714V1.14286C6.85714 0.511676 7.36881 0 7.99999 0C8.63118 0 9.14285 0.511674 9.14285 1.14286V6.85714H14.8571C15.4883 6.85714 16 7.36881 16 7.99999Z" fill="black"/>
</svg>
