<svg width="20" height="20" viewBox="0 0 20 20" fill="none" xmlns="http://www.w3.org/2000/svg">
    <path fill-rule="evenodd" clip-rule="evenodd" d="M3.51931 2.22434L1.10712 2.22434C0.812302 2.22434 0.52956 2.34137 0.321092 2.54969C-0.107031 2.9775 -0.107031 3.69279 0.321092 4.12061C0.52956 4.32893 0.812302 4.44596 1.10712 4.44596H3.51931C3.98477 5.76415 5.26631 6.6703 6.66517 6.6703C8.06403 6.6703 9.34557 5.76415 9.81103 4.44596L18.8929 4.44596C19.1877 4.44596 19.4704 4.32893 19.6789 4.12061C20.107 3.69279 20.107 2.9775 19.6789 2.54969C19.4704 2.34137 19.1877 2.22434 18.8929 2.22434L9.81103 2.22434C9.34557 0.906143 8.06402 0 6.66517 0C5.26631 0 3.98477 0.906143 3.51931 2.22434ZM10.189 8.88919L1.10712 8.88919C0.812302 8.88919 0.52956 9.00622 0.321092 9.21454C-0.107031 9.64235 -0.107031 10.3576 0.321092 10.7855C0.52956 10.9938 0.812302 11.1108 1.10712 11.1108L10.189 11.1108C10.6544 12.429 11.936 13.3351 13.3348 13.3351C14.7337 13.3351 16.0152 12.429 16.4807 11.1108H18.8929C19.1877 11.1108 19.4704 10.9938 19.6789 10.7855C20.107 10.3576 20.107 9.64235 19.6789 9.21454C19.4704 9.00622 19.1877 8.88919 18.8929 8.88919H16.4807C16.0152 7.57099 14.7337 6.66485 13.3348 6.66485C11.936 6.66485 10.6544 7.57099 10.189 8.88919ZM3.51931 15.554H1.10712C0.812302 15.554 0.52956 15.6711 0.321092 15.8794C-0.107031 16.3072 -0.107031 17.0225 0.321092 17.4503C0.52956 17.6586 0.812302 17.7757 1.10712 17.7757H3.51931C3.98477 19.0939 5.26631 20 6.66517 20C8.06402 20 9.34557 19.0939 9.81103 17.7757L18.8929 17.7757C19.1877 17.7757 19.4704 17.6586 19.6789 17.4503C20.107 17.0225 20.107 16.3072 19.6789 15.8794C19.4704 15.6711 19.1877 15.554 18.8929 15.554H9.81103C9.34557 14.2358 8.06403 13.3297 6.66517 13.3297C5.26631 13.3297 3.98477 14.2358 3.51931 15.554ZM13.3054 11.8342C14.3191 11.8342 15.1408 11.013 15.1408 10C15.1408 8.98707 14.3191 8.16591 13.3054 8.16591C12.2917 8.16591 11.4699 8.98707 11.4699 10C11.4699 11.013 12.2917 11.8342 13.3054 11.8342ZM8.52414 3.3143C8.52414 4.32726 7.70238 5.14843 6.68869 5.14843C5.675 5.14843 4.85324 4.32726 4.85324 3.3143C4.85324 2.30134 5.675 1.48017 6.68869 1.48017C7.70238 1.48017 8.52414 2.30134 8.52414 3.3143ZM6.67527 18.4898C7.68896 18.4898 8.51072 17.6686 8.51072 16.6556C8.51072 15.6427 7.68896 14.8215 6.67527 14.8215C5.66158 14.8215 4.83982 15.6427 4.83982 16.6556C4.83982 17.6686 5.66158 18.4898 6.67527 18.4898Z" fill="black"/>
</svg>
