<svg width="25" height="25" viewBox="0 0 25 25" fill="none" xmlns="http://www.w3.org/2000/svg">
    <path d="M12.497 13.9451L18.1086 8.33373C18.2627 8.17922 18.4688 8.09422 18.6886 8.09422C18.9084 8.09422 19.1144 8.17922 19.2688 8.33373L19.7602 8.82543C19.9149 8.97969 20 9.18591 20 9.40566C20 9.62541 19.9149 9.83138 19.7602 9.98577L13.0792 16.667C12.9243 16.822 12.7173 16.9069 12.4973 16.9062C12.2764 16.9069 12.0697 16.8221 11.9147 16.667L5.24003 9.99199C5.0854 9.8376 5.00028 9.63163 5.00028 9.41176C5.00028 9.192 5.0854 8.98603 5.24003 8.83152L5.73149 8.33995C6.05136 8.02007 6.57208 8.02007 6.89183 8.33995L12.497 13.9451Z" fill="black"/>
</svg>
