<svg width="25" height="25" viewBox="0 0 25 25" fill="none" xmlns="http://www.w3.org/2000/svg">
    <path fill-rule="evenodd" clip-rule="evenodd" d="M23.7499 12.3242V8.80857C23.7499 8.32329 23.3564 7.92967 22.871 7.92967H19.786L15.1419 1.60858C14.8544 1.21736 14.3044 1.13325 13.9131 1.42078C13.5219 1.70814 13.4378 2.25814 13.7252 2.64936L17.6049 7.92967H7.42759L11.3071 2.64936C11.5945 2.25814 11.5104 1.70814 11.1192 1.42078C10.728 1.13325 10.1779 1.21753 9.89059 1.60858L5.24628 7.92967H2.12891C1.64345 7.92967 1.25 8.32311 1.25 8.80857V12.3242C1.25 12.8097 1.64345 13.2031 2.12891 13.2031H2.72166L3.61447 20.6527C3.82613 22.4184 5.32679 23.75 7.10521 23.75H17.9652C19.7568 23.75 21.2587 22.4072 21.4589 20.6269L22.293 13.2031H22.871C23.3564 13.2031 23.7499 12.8097 23.7499 12.3242ZM4.492 13.2031L5.35992 20.4436C5.46567 21.3265 6.216 21.9922 7.10521 21.9922H17.9652C18.8609 21.9922 19.612 21.3208 19.712 20.4306L20.5241 13.2031H4.492ZM21.9922 9.68748V11.4453H3.00782V9.68748H21.9922Z" fill="black"/>
    <path d="M13.8867 19.3555V15.8398C13.8867 15.3544 14.2801 14.9609 14.7656 14.9609C15.2509 14.9609 15.6445 15.3544 15.6445 15.8398V19.3555C15.6445 19.8409 15.2509 20.2344 14.7656 20.2344C14.2801 20.2344 13.8867 19.8409 13.8867 19.3555Z" fill="black"/>
    <path d="M9.35537 19.3555V15.8398C9.35537 15.3544 9.74882 14.9609 10.2343 14.9609C10.7196 14.9609 11.1132 15.3544 11.1132 15.8398V19.3555C11.1132 19.8409 10.7196 20.2344 10.2343 20.2344C9.74882 20.2344 9.35537 19.8409 9.35537 19.3555Z" fill="black"/>
</svg>
