<svg width="26" height="26" viewBox="0 0 26 26" fill="none" xmlns="http://www.w3.org/2000/svg">
    <path fill-rule="evenodd" clip-rule="evenodd" d="M9.56987 4.7084C9.76079 4.42202 10.0822 4.25 10.4264 4.25H15.5735C15.9177 4.25 16.2391 4.42202 16.43 4.7084L17.8401 6.82355H20.7206C22.2158 6.82355 23.4657 8.07349 23.4657 9.56867V19.005C23.4657 20.5002 22.2158 21.7501 20.7206 21.7501H5.2793C3.78412 21.7501 2.53418 20.5002 2.53418 19.005V9.56867C2.53418 8.07349 3.78412 6.82355 5.2793 6.82355H8.15977L9.56987 4.7084ZM10.9773 6.30884L9.56723 8.42399C9.3763 8.71037 9.05489 8.88239 8.7107 8.88239H5.2793C4.91527 8.88239 4.59302 9.20464 4.59302 9.56867V19.005C4.59302 19.369 4.91527 19.6913 5.2793 19.6913H20.7206C21.0846 19.6913 21.4069 19.369 21.4069 19.005V9.56867C21.4069 9.20465 21.0846 8.88239 20.7206 8.88239H17.2892C16.945 8.88239 16.6236 8.71037 16.4327 8.42399L15.0226 6.30884H10.9773Z" fill="black"/>
    <path fill-rule="evenodd" clip-rule="evenodd" d="M12.9999 11.4559C11.6733 11.4559 10.5979 12.5313 10.5979 13.8579C10.5979 15.1845 11.6733 16.2599 12.9999 16.2599C14.3264 16.2599 15.4018 15.1845 15.4018 13.8579C15.4018 12.5313 14.3264 11.4559 12.9999 11.4559ZM8.53904 13.8579C8.53904 11.3943 10.5362 9.3971 12.9999 9.3971C15.4635 9.3971 17.4607 11.3943 17.4607 13.8579C17.4607 16.3216 15.4635 18.3187 12.9999 18.3187C10.5362 18.3187 8.53904 16.3216 8.53904 13.8579Z" fill="black"/>
</svg>
