<svg width="25" height="25" viewBox="0 0 25 25" fill="none" xmlns="http://www.w3.org/2000/svg">
    <path d="M12.4998 1.25C6.28714 1.25 1.24976 6.28739 1.24976 12.5C1.24976 18.7126 6.28714 23.75 12.4998 23.75C18.7124 23.75 23.7498 18.7126 23.7498 12.5C23.7498 6.28739 18.7124 1.25 12.4998 1.25ZM17.3589 8.82617L12.0703 16.1588C11.7589 16.5935 11.0779 16.5855 10.7721 16.1588L7.64066 11.8195C7.54524 11.6864 7.64066 11.5006 7.80389 11.5006H8.98162C9.23776 11.5006 9.48134 11.6236 9.63201 11.8345L11.42 14.3156L15.3675 8.84124C15.5182 8.63281 15.7592 8.50726 16.0179 8.50726H17.1956C17.3589 8.50726 17.4543 8.69308 17.3589 8.82617Z" fill="#9EADC4"/>
</svg>
