<svg width="25" height="25" viewBox="0 0 25 25" fill="none" xmlns="http://www.w3.org/2000/svg">
    <path d="M23.596 1.77517C22.9448 1.12391 21.9157 1.0721 21.2024 1.65481L14.9068 6.79745H4.25982C3.28946 6.79745 2.5 7.58668 2.5 8.55679V19.1636C2.5 20.1337 3.28946 20.923 4.25982 20.923H9.26127V22.4317H8.15271C7.7887 22.4317 7.49358 22.7269 7.49358 23.0909C7.49358 23.4549 7.7887 23.75 8.15271 23.75H15.2059C15.5699 23.75 15.8651 23.4549 15.8651 23.0909C15.8651 22.7269 15.5699 22.4317 15.2059 22.4317H14.0974V20.923H19.0988C20.0692 20.923 20.8587 20.1337 20.8587 19.1636V7.67066L23.7169 4.16802C24.299 3.4548 24.247 2.42608 23.596 1.77517ZM14.4821 9.43558C14.5024 9.03839 14.6834 8.68132 14.9926 8.42953L16.0892 7.53369L17.8402 9.28464L16.9422 10.385C16.6908 10.6924 16.3339 10.8726 15.9373 10.8923C15.5403 10.9124 15.1676 10.7684 14.8868 10.4876C14.6056 10.2064 14.4618 9.83277 14.4821 9.43558ZM13.9528 13.6883C13.6608 13.9804 13.1743 14.1149 12.5071 14.0881C12.0014 14.0678 11.5683 14.1033 11.2013 14.1695C11.2674 13.8026 11.303 13.3692 11.2827 12.8637C11.2559 12.1965 11.3904 11.7101 11.6825 11.418C11.9857 11.1148 12.3888 10.9478 12.8177 10.9478C13.2465 10.9478 13.6496 11.1148 13.9528 11.418C14.5788 12.044 14.5788 13.0624 13.9528 13.6883ZM12.7791 22.4318H10.5795V20.923H12.7791V22.4318ZM19.5404 19.1636C19.5404 19.4068 19.3423 19.6047 19.0988 19.6047H4.25982C4.01634 19.6047 3.81825 19.4068 3.81825 19.1636V18.6013H19.5404V19.1636ZM19.5404 17.283H3.81825V8.55679C3.81825 8.31357 4.01634 8.1157 4.25982 8.1157H13.5481C13.3226 8.49224 13.1884 8.92177 13.1656 9.36839C13.1608 9.46287 13.161 9.55712 13.1661 9.65076C13.0512 9.63723 12.9351 9.62949 12.8177 9.62949C12.0368 9.62949 11.3025 9.93361 10.7504 10.4858C10.1874 11.0488 9.92339 11.8666 9.96557 12.9166C10.0217 14.3143 9.55836 14.8753 9.52224 14.9167C9.2756 15.1749 9.27916 15.5841 9.53292 15.8379C9.66163 15.9666 9.83032 16.031 9.99901 16.031C10.1629 16.031 10.3269 15.9702 10.4541 15.8487C10.4953 15.8128 11.0565 15.3493 12.4542 15.4053C13.5046 15.4476 14.3221 15.1835 14.8851 14.6205C15.5428 13.9627 15.8202 13.067 15.7189 12.2078C15.7687 12.2106 15.8187 12.2123 15.8688 12.2123C15.9135 12.2123 15.9583 12.2112 16.0031 12.209C16.7653 12.171 17.4795 11.8104 17.9632 11.2191L19.5405 9.28618V17.283H19.5404ZM10.465 15.838C10.465 15.838 10.4618 15.8416 10.4548 15.848C10.4582 15.8447 10.4616 15.8414 10.465 15.838ZM9.53288 14.9058C9.52949 14.9092 9.5262 14.9126 9.5229 14.9159C9.52927 14.909 9.53288 14.9058 9.53288 14.9058ZM22.6955 3.33462L18.6778 8.25811L17.1152 6.69559L22.0363 2.67575C22.1233 2.6047 22.2282 2.56964 22.3327 2.56964C22.4528 2.56964 22.5725 2.61599 22.6638 2.7073C22.8345 2.87797 22.8481 3.14764 22.6955 3.33462Z" fill="black"/>
</svg>
