<svg width="25" height="25" viewBox="0 0 25 25" fill="none" xmlns="http://www.w3.org/2000/svg">
    <path d="M12.4668 20.8334H4.99168C4.53321 20.8334 4.16114 20.46 4.16114 20.0001V5.00002C4.16114 4.54002 4.53325 4.16671 4.99168 4.16671H12.4668C12.9261 4.16671 13.2974 3.79422 13.2974 3.33339C13.2974 2.87257 12.9261 2.5 12.4668 2.5H4.99168C3.61793 2.5 2.5 3.6217 2.5 5.00002V20C2.5 21.3783 3.61793 22.5 4.99168 22.5H12.4668C12.9261 22.5 13.2974 22.1275 13.2974 21.6667C13.2974 21.2059 12.9261 20.8334 12.4668 20.8334Z" fill="black"/>
    <path d="M22.2525 11.9065L17.2027 6.90645C16.8771 6.58311 16.3505 6.5873 16.0282 6.9148C15.706 7.24229 15.7093 7.76979 16.0366 8.09313L19.6453 11.6664H9.97506C9.51577 11.6664 9.14452 12.0389 9.14452 12.4998C9.14452 12.9606 9.51577 13.3331 9.97506 13.3331H19.6453L16.0366 16.9064C15.7093 17.2298 15.7068 17.7573 16.0282 18.0848C16.191 18.2498 16.4053 18.3331 16.6196 18.3331C16.8306 18.3331 17.0415 18.2531 17.2027 18.0931L22.2525 13.0931C22.4103 12.9364 22.5 12.723 22.5 12.4997C22.5 12.2765 22.4111 12.064 22.2525 11.9065Z" fill="black"/>
</svg>
