<svg width="20" height="20" viewBox="0 0 20 20" fill="none" xmlns="http://www.w3.org/2000/svg">
    <path d="M15.1949 11.167C16.7689 9.87408 17.7893 8.02844 18.0472 6.00785C18.0613 5.89043 18.0521 5.77138 18.0202 5.65751C17.9883 5.54364 17.9342 5.43716 17.8612 5.34417C17.7881 5.25118 17.6974 5.17349 17.5943 5.11554C17.4912 5.05759 17.3778 5.02051 17.2603 5.00641C17.1429 4.99232 17.0239 5.0015 16.91 5.03342C16.7961 5.06533 16.6896 5.11937 16.5967 5.19243C16.5037 5.2655 16.426 5.35616 16.368 5.45925C16.3101 5.56234 16.273 5.67584 16.2589 5.79326C16.0451 7.30103 15.2943 8.68095 14.1444 9.67934C12.9945 10.6777 11.5228 11.2274 9.99994 11.2274C8.47709 11.2274 7.00543 10.6777 5.85552 9.67934C4.7056 8.68095 3.95474 7.30103 3.74098 5.79326C3.72689 5.67584 3.68981 5.56234 3.63186 5.45925C3.5739 5.35616 3.49621 5.2655 3.40322 5.19243C3.31023 5.11937 3.20376 5.06533 3.08988 5.03342C2.97601 5.0015 2.85696 4.99232 2.73954 5.00641C2.62212 5.02051 2.50863 5.05759 2.40554 5.11554C2.30245 5.17349 2.21179 5.25118 2.13872 5.34417C2.06566 5.43716 2.01162 5.54364 1.97971 5.65751C1.94779 5.77138 1.93861 5.89043 1.9527 6.00785C2.20828 8.02712 3.22535 9.87256 4.79606 11.167L2.73954 13.2414C2.59306 13.4125 2.51652 13.6325 2.52521 13.8575C2.5339 14.0826 2.62719 14.296 2.78643 14.4553C2.94567 14.6145 3.15914 14.7078 3.38417 14.7165C3.6092 14.7252 3.82923 14.6486 4.00028 14.5022L6.33398 12.1774C7.20111 12.6156 8.14001 12.8942 9.1058 13V16.1831C9.1058 16.4203 9.20001 16.6477 9.36769 16.8154C9.53537 16.9831 9.7628 17.0773 9.99994 17.0773C10.2371 17.0773 10.4645 16.9831 10.6322 16.8154C10.7999 16.6477 10.8941 16.4203 10.8941 16.1831V13C11.8599 12.8942 12.7988 12.6156 13.6659 12.1774L15.9996 14.5022C16.1706 14.6486 16.3907 14.7252 16.6157 14.7165C16.8407 14.7078 17.0542 14.6145 17.2134 14.4553C17.3727 14.296 17.466 14.0826 17.4747 13.8575C17.4834 13.6325 17.4068 13.4125 17.2603 13.2414L15.1949 11.167Z" fill="black"/>
</svg>
