<svg width="25" height="25" viewBox="0 0 25 25" fill="none" xmlns="http://www.w3.org/2000/svg">
    <path fill-rule="evenodd" clip-rule="evenodd" d="M12.5 1.25C13.2139 1.25 13.8981 1.33709 14.5455 1.4994C19.4284 2.72373 22.2115 8.22811 19.7972 12.9177L15.5986 21.8054C14.3748 24.3962 10.627 24.4 9.40138 21.8054L5.20289 12.9179C2.46881 7.608 6.3997 1.25 12.5 1.25ZM12.5 3.29545C7.88134 3.29545 5.01082 8.0767 7.02143 11.9815L7.03743 12.0126L11.2508 20.9317C11.7374 21.9617 13.2623 21.9623 13.7491 20.9317L17.9626 12.0125L17.9786 11.9815C19.9894 8.07555 17.1179 3.29545 12.5 3.29545ZM12.5 4.73072C15.0072 4.73072 17.1017 6.74256 17.1017 9.29044C17.1017 11.8383 15.0071 13.8501 12.5 13.8501C9.99288 13.8501 7.8983 11.8383 7.8983 9.29044C7.8983 6.74263 9.99284 4.73072 12.5 4.73072ZM15.0563 9.29044C15.0563 7.90404 13.9096 6.77617 12.5 6.77617C11.0905 6.77617 9.94374 7.90408 9.94374 9.29044C9.94374 10.6768 11.0905 11.8047 12.5 11.8047C13.9096 11.8047 15.0563 10.6768 15.0563 9.29044Z" fill="black"/>
</svg>
