<svg width="25" height="25" viewBox="0 0 25 25" fill="none" xmlns="http://www.w3.org/2000/svg">
    <path d="M12.5 1.25C6.28739 1.25 1.25 6.28739 1.25 12.5C1.25 18.7126 6.28739 23.75 12.5 23.75C18.7126 23.75 23.75 18.7126 23.75 12.5C23.75 6.28739 18.7126 1.25 12.5 1.25ZM12.5 21.8415C7.34208 21.8415 3.15848 17.6579 3.15848 12.5C3.15848 7.34208 7.34208 3.15848 12.5 3.15848C17.6579 3.15848 21.8415 7.34208 21.8415 12.5C21.8415 17.6579 17.6579 21.8415 12.5 21.8415Z" fill="black"/>
    <path fill-rule="evenodd" clip-rule="evenodd" d="M11.0417 7.8125C11.0417 7.29473 11.4614 6.875 11.9792 6.875H12.5C13.0178 6.875 13.4375 7.29473 13.4375 7.8125C13.4375 8.33027 13.0178 8.75 12.5 8.75H11.9792C11.4614 8.75 11.0417 8.33027 11.0417 7.8125Z" fill="black"/>
    <path d="M10.4167 11.0417C9.8989 11.0417 9.47917 11.4614 9.47917 11.9792C9.47917 12.4969 9.8989 12.9167 10.4167 12.9167H11.5625V16.25H10.4167C9.8989 16.25 9.47917 16.6697 9.47917 17.1875C9.47917 17.7053 9.8989 18.125 10.4167 18.125H14.5833C15.1011 18.125 15.5208 17.7053 15.5208 17.1875C15.5208 16.6697 15.1011 16.25 14.5833 16.25H13.4375V11.9792C13.4375 11.4614 13.0178 11.0417 12.5 11.0417H10.4167Z" fill="black"/>
</svg>
