<svg width="25" height="25" viewBox="0 0 25 25" fill="none" xmlns="http://www.w3.org/2000/svg">
    <path d="M20.6481 4.80078L4.35188 4.80078C3.86091 4.80134 3.39022 4.99663 3.04305 5.3438C2.69588 5.69096 2.5006 6.16166 2.50003 6.65263L2.50003 21.3585C2.49791 21.7116 2.59773 22.0578 2.78753 22.3556C2.97733 22.6534 3.24904 22.89 3.57003 23.0372C3.81626 23.1527 4.08481 23.2128 4.35679 23.2133C4.79162 23.2124 5.21208 23.0575 5.54354 22.7761L8.42196 20.3563H20.6481C21.1391 20.3557 21.6098 20.1604 21.9569 19.8133C22.3041 19.4661 22.4994 18.9954 22.5 18.5044V6.65263C22.4994 6.16166 22.3041 5.69096 21.9569 5.3438C21.6098 4.99663 21.1391 4.80134 20.6481 4.80078ZM20.2778 18.1341H8.21029C8.08048 18.1341 7.95168 18.1569 7.82974 18.2014L7.48872 18.3255C7.3667 18.37 7.25341 18.4355 7.154 18.5191L4.72225 20.5633L4.72225 7.023L20.2778 7.023V18.1341ZM8.42594 10.7267C8.42594 10.432 8.543 10.1494 8.75137 9.94101C8.95975 9.73264 9.24236 9.61558 9.53705 9.61558L15.463 9.61558C15.7576 9.61558 16.0402 9.73264 16.2486 9.94101C16.457 10.1494 16.5741 10.432 16.5741 10.7267C16.5741 11.0214 16.457 11.304 16.2486 11.5124C16.0402 11.7207 15.7576 11.8378 15.463 11.8378L9.53705 11.8378C9.24236 11.8378 8.95975 11.7207 8.75137 11.5124C8.543 11.304 8.42594 11.0214 8.42594 10.7267ZM8.42594 14.4304C8.42594 14.1357 8.543 13.8531 8.75137 13.6447C8.95975 13.4363 9.24236 13.3193 9.53705 13.3193L15.463 13.3193C15.7576 13.3193 16.0402 13.4363 16.2486 13.6447C16.457 13.8531 16.5741 14.1357 16.5741 14.4304C16.5741 14.7251 16.457 15.0077 16.2486 15.216C16.0402 15.4244 15.7576 15.5415 15.463 15.5415L9.53705 15.5415C9.24236 15.5415 8.95975 15.4244 8.75137 15.216C8.543 15.0077 8.42594 14.7251 8.42594 14.4304Z" fill="black"/>
</svg>
