<svg width="170" height="50" viewBox="0 0 170 50" fill="none" xmlns="http://www.w3.org/2000/svg">
    <g clip-path="url(#clip0_12584_386)">
        <path d="M163.125 0H6.87451C3.42273 0 0.624512 2.79822 0.624512 6.25V43.75C0.624512 47.2018 3.42273 50 6.87451 50H163.125C166.576 50 169.375 47.2018 169.375 43.75V6.25C169.375 2.79822 166.576 0 163.125 0Z" fill="black"/>
        <path d="M163.125 1C164.517 1 165.852 1.55312 166.837 2.53769C167.821 3.52226 168.375 4.85761 168.375 6.25V43.75C168.375 45.1424 167.821 46.4777 166.837 47.4623C165.852 48.4469 164.517 49 163.125 49H6.87451C5.48213 49 4.14677 48.4469 3.1622 47.4623C2.17763 46.4777 1.62451 45.1424 1.62451 43.75V6.25C1.62451 4.85761 2.17763 3.52226 3.1622 2.53769C4.14677 1.55312 5.48213 1 6.87451 1H163.125ZM163.125 0H6.87451C5.21691 0 3.6272 0.65848 2.45509 1.83058C1.28299 3.00269 0.624512 4.5924 0.624512 6.25V43.75C0.624512 45.4076 1.28299 46.9973 2.45509 48.1694C3.6272 49.3415 5.21691 50 6.87451 50H163.125C164.782 50 166.372 49.3415 167.544 48.1694C168.716 46.9973 169.375 45.4076 169.375 43.75V6.25C169.375 4.5924 168.716 3.00269 167.544 1.83058C166.372 0.65848 164.782 0 163.125 0Z" fill="#A6A6A6"/>
        <path d="M85.7996 27.1873C84.75 27.1923 83.7254 27.508 82.855 28.0948C81.9847 28.6815 81.3076 29.5129 80.9094 30.4841C80.5111 31.4553 80.4095 32.5226 80.6173 33.5515C80.8251 34.5804 81.333 35.5246 82.077 36.2651C82.8209 37.0056 83.7676 37.5091 84.7974 37.712C85.8272 37.915 86.8941 37.8083 87.8634 37.4055C88.8327 37.0027 89.6609 36.3218 90.2435 35.4487C90.8262 34.5756 91.1371 33.5495 91.1371 32.4998C91.1473 31.7973 91.0161 31.0998 90.7511 30.449C90.4862 29.7982 90.093 29.2074 89.595 28.7117C89.0969 28.216 88.5043 27.8256 87.8523 27.5637C87.2002 27.3019 86.5022 27.1739 85.7996 27.1873ZM85.7996 35.7248C85.1541 35.77 84.5099 35.6199 83.9508 35.2941C83.3918 34.9683 82.9436 34.4818 82.6647 33.8979C82.3857 33.314 82.2889 32.6597 82.3867 32.02C82.4846 31.3804 82.7726 30.7849 83.2134 30.3111C83.6541 29.8373 84.2272 29.5071 84.8581 29.3633C85.489 29.2195 86.1486 29.2689 86.7511 29.5049C87.3536 29.741 87.8712 30.1529 88.2365 30.687C88.6019 31.2211 88.7981 31.8527 88.7996 32.4998C88.8198 32.9099 88.7576 33.3198 88.6168 33.7054C88.476 34.091 88.2594 34.4445 87.9798 34.7451C87.7002 35.0456 87.3633 35.2872 86.9888 35.4555C86.6144 35.6237 86.21 35.7153 85.7996 35.7248ZM74.1621 27.1873C73.112 27.1898 72.0861 27.5035 71.2141 28.0887C70.3421 28.674 69.6631 29.5045 69.263 30.4755C68.8628 31.4464 68.7593 32.5142 68.9657 33.5439C69.1721 34.5736 69.6791 35.519 70.4226 36.2607C71.166 37.0025 72.1126 37.5072 73.1428 37.7112C74.173 37.9151 75.2405 37.8092 76.2105 37.4067C77.1805 37.0043 78.0095 36.3234 78.5927 35.45C79.1759 34.5766 79.4871 33.55 79.4871 32.4998C79.4973 31.7973 79.3661 31.0998 79.1011 30.449C78.8362 29.7982 78.443 29.2074 77.945 28.7117C77.4469 28.216 76.8543 27.8256 76.2023 27.5637C75.5502 27.3019 74.8522 27.1739 74.1496 27.1873H74.1621ZM74.1621 35.7248C73.5163 35.7725 72.8711 35.6247 72.3104 35.3005C71.7498 34.9764 71.2997 34.491 71.0188 33.9075C70.7379 33.324 70.6392 32.6694 70.7355 32.029C70.8318 31.3886 71.1187 30.792 71.5588 30.317C71.9989 29.8419 72.5718 29.5103 73.203 29.3654C73.8342 29.2205 74.4943 29.2689 75.0976 29.5045C75.7008 29.74 76.2192 30.1517 76.5852 30.6859C76.9512 31.2202 77.1479 31.8522 77.1496 32.4998C77.1698 32.9099 77.1076 33.3198 76.9668 33.7054C76.826 34.091 76.6094 34.4445 76.3298 34.7451C76.0502 35.0456 75.7133 35.2872 75.3388 35.4555C74.9644 35.6237 74.56 35.7153 74.1496 35.7248H74.1621ZM60.2996 28.8248V31.0748H65.6996C65.615 32.1346 65.1744 33.1346 64.4496 33.9123C63.9094 34.4626 63.2599 34.8937 62.543 35.1779C61.8261 35.4621 61.0577 35.593 60.2871 35.5623C58.6958 35.5623 57.1697 34.9302 56.0445 33.805C54.9193 32.6798 54.2871 31.1536 54.2871 29.5623C54.2871 27.971 54.9193 26.4449 56.0445 25.3197C57.1697 24.1945 58.6958 23.5623 60.2871 23.5623C61.8094 23.5375 63.2793 24.1174 64.3746 25.1748L65.9621 23.5873C65.2227 22.8386 64.3406 22.2459 63.3679 21.8444C62.3952 21.4429 61.3519 21.2407 60.2996 21.2498C59.1884 21.2066 58.0798 21.3881 57.0404 21.7836C56.001 22.179 55.0521 22.7802 54.2506 23.5511C53.4491 24.322 52.8114 25.2468 52.3759 26.2701C51.9403 27.2933 51.7158 28.394 51.7158 29.5061C51.7158 30.6182 51.9403 31.7188 52.3759 32.7421C52.8114 33.7653 53.4491 34.6902 54.2506 35.4611C55.0521 36.232 56.001 36.8332 57.0404 37.2286C58.0798 37.6241 59.1884 37.8056 60.2996 37.7623C61.3696 37.8107 62.4375 37.6293 63.4314 37.2304C64.4254 36.8315 65.3224 36.2244 66.0621 35.4498C67.3717 34.011 68.0709 32.1195 68.0121 30.1748C68.0162 29.7011 67.9743 29.228 67.8871 28.7623L60.2996 28.8248ZM116.937 30.5748C116.611 29.6158 116.002 28.7783 115.189 28.1734C114.377 27.5685 113.399 27.2246 112.387 27.1873C111.703 27.186 111.027 27.3249 110.399 27.5955C109.771 27.8661 109.205 28.2626 108.736 28.7605C108.268 29.2584 107.906 29.8472 107.674 30.4903C107.442 31.1335 107.344 31.8174 107.387 32.4998C107.372 33.1985 107.498 33.893 107.757 34.542C108.016 35.1909 108.404 35.7809 108.896 36.2768C109.388 36.7727 109.976 37.1642 110.623 37.4281C111.27 37.6919 111.963 37.8226 112.662 37.8123C113.537 37.8171 114.398 37.6048 115.171 37.1947C115.943 36.7846 116.601 36.1894 117.087 35.4623L115.275 34.2123C115.004 34.6633 114.621 35.0363 114.163 35.2949C113.705 35.5534 113.188 35.6887 112.662 35.6873C112.121 35.708 111.586 35.5652 111.126 35.2776C110.667 34.9901 110.305 34.571 110.087 34.0748L117.2 31.1373L116.937 30.5748ZM109.687 32.3498C109.662 31.9632 109.714 31.5754 109.84 31.2091C109.967 30.8429 110.165 30.5055 110.423 30.2168C110.682 29.9281 110.995 29.6939 111.345 29.5279C111.695 29.3618 112.075 29.2673 112.462 29.2498C112.865 29.2233 113.267 29.3157 113.619 29.5157C113.97 29.7157 114.254 30.0145 114.437 30.3748L109.687 32.3498ZM103.912 37.4998H106.25V21.8748H103.912V37.4998ZM100.087 28.3748H99.9996C99.6474 27.981 99.2158 27.666 98.7332 27.4506C98.2507 27.2352 97.7281 27.1241 97.1996 27.1248C95.8336 27.1911 94.5455 27.7804 93.6021 28.7706C92.6588 29.7608 92.1326 31.076 92.1326 32.4436C92.1326 33.8112 92.6588 35.1264 93.6021 36.1166C94.5455 37.1068 95.8336 37.6961 97.1996 37.7623C97.7293 37.7712 98.2546 37.6639 98.7383 37.448C99.2221 37.232 99.6526 36.9126 99.9996 36.5123H100.075V37.2748C100.075 39.3123 98.9871 40.3998 97.2371 40.3998C96.6543 40.3862 96.0887 40.1994 95.6123 39.8633C95.1359 39.5272 94.7704 39.0569 94.5621 38.5123L92.5246 39.3623C92.9082 40.2953 93.5617 41.0924 94.4013 41.6514C95.241 42.2104 96.2285 42.5059 97.2371 42.4998C99.9746 42.4998 102.237 40.8873 102.237 36.9623V27.4998H100.087V28.3748ZM97.4121 35.7248C96.6058 35.6538 95.8554 35.2833 95.3087 34.6863C94.7621 34.0894 94.4589 33.3093 94.4589 32.4998C94.4589 31.6904 94.7621 30.9103 95.3087 30.3134C95.8554 29.7164 96.6058 29.3459 97.4121 29.2748C97.8119 29.2954 98.2036 29.3957 98.564 29.5699C98.9244 29.7441 99.2463 29.9887 99.5107 30.2892C99.7751 30.5897 99.9767 30.9402 100.104 31.3198C100.231 31.6995 100.28 32.1007 100.25 32.4998C100.284 32.9007 100.236 33.3043 100.11 33.6863C99.9835 34.0682 99.781 34.4206 99.5146 34.7221C99.2482 35.0235 98.9234 35.2678 98.5599 35.4402C98.1964 35.6126 97.8017 35.7094 97.3996 35.7248H97.4121ZM127.887 21.8748H122.3V37.4998H124.637V31.5748H127.9C128.566 31.6227 129.235 31.5328 129.865 31.3108C130.495 31.0887 131.072 30.7393 131.561 30.2842C132.05 29.8292 132.44 29.2783 132.706 28.6659C132.973 28.0535 133.111 27.3927 133.111 26.7248C133.111 26.0569 132.973 25.3962 132.706 24.7838C132.44 24.1714 132.05 23.6205 131.561 23.1655C131.072 22.7104 130.495 22.361 129.865 22.1389C129.235 21.9169 128.566 21.827 127.9 21.8748H127.887ZM127.887 29.3748H124.625V24.0498H127.937C128.648 24.0498 129.33 24.3323 129.833 24.8352C130.336 25.338 130.618 26.02 130.618 26.7311C130.618 27.4422 130.336 28.1242 129.833 28.627C129.33 29.1299 128.648 29.4123 127.937 29.4123L127.887 29.3748ZM142.3 27.1248C141.449 27.074 140.601 27.2728 139.862 27.697C139.122 28.1211 138.523 28.7521 138.137 29.5123L140.212 30.3748C140.417 29.9978 140.727 29.6883 141.104 29.4842C141.481 29.28 141.91 29.1899 142.337 29.2248C142.634 29.1902 142.935 29.215 143.222 29.2977C143.509 29.3805 143.776 29.5196 144.009 29.707C144.242 29.8943 144.435 30.1261 144.577 30.3889C144.719 30.6516 144.808 30.9401 144.837 31.2373V31.3998C144.086 31.0023 143.249 30.7962 142.4 30.7998C140.162 30.7998 137.9 32.0498 137.9 34.3123C137.922 34.7948 138.04 35.2679 138.248 35.7037C138.456 36.1395 138.75 36.5291 139.111 36.8496C139.472 37.1701 139.894 37.4148 140.352 37.5695C140.809 37.7241 141.293 37.7854 141.775 37.7498C142.363 37.7921 142.952 37.6751 143.48 37.4112C144.008 37.1473 144.455 36.7461 144.775 36.2498H144.85V37.4998H147.1V31.4873C147.1 28.7498 145.025 27.1623 142.362 27.1623L142.3 27.1248ZM142.012 35.6873C141.25 35.6873 140.187 35.2998 140.187 34.3623C140.187 33.1123 141.512 32.6998 142.687 32.6998C143.43 32.6815 144.164 32.8628 144.812 33.2248C144.734 33.9016 144.414 34.5273 143.911 34.9867C143.408 35.4461 142.756 35.7082 142.075 35.7248L142.012 35.6873ZM155.3 27.4998L152.625 34.2748H152.55L149.775 27.4998H147.275L151.437 36.9748L149.062 42.2373H151.5L157.9 27.4998H155.3ZM134.287 37.4998H136.625V21.8748H134.287V37.4998Z" fill="white"/>
        <path d="M53.2624 17.8374H52.3374V15.3374H53.1249C53.484 14.9569 53.7552 14.5022 53.9193 14.0054C54.0835 13.5087 54.1366 12.9819 54.0749 12.4624V8.7499H59.0749V15.3249H59.9124V17.8249H58.9874V16.2499H53.2624V17.8374ZM54.9999 12.4999C55.0582 13.5082 54.8098 14.5105 54.2874 15.3749H58.0374V9.6749H54.9999V12.4999ZM67.3874 15.2749C66.6566 16.0016 65.668 16.4095 64.6374 16.4095C63.6068 16.4095 62.6182 16.0016 61.8874 15.2749C61.1771 14.5231 60.7814 13.528 60.7814 12.4937C60.7814 11.4594 61.1771 10.4642 61.8874 9.7124C62.2476 9.34958 62.676 9.06162 63.148 8.86512C63.62 8.66861 64.1262 8.56744 64.6374 8.56744C65.1486 8.56744 65.6548 8.66861 66.1268 8.86512C66.5988 9.06162 67.0272 9.34958 67.3874 9.7124C68.1005 10.4628 68.4981 11.4585 68.4981 12.4937C68.4981 13.5288 68.1005 14.5245 67.3874 15.2749ZM62.5999 14.6499C63.1411 15.1888 63.8737 15.4914 64.6374 15.4914C65.4011 15.4914 66.1337 15.1888 66.6749 14.6499C67.209 14.0612 67.5048 13.2948 67.5048 12.4999C67.5048 11.705 67.209 10.9386 66.6749 10.3499C66.1337 9.811 65.4011 9.50844 64.6374 9.50844C63.8737 9.50844 63.1411 9.811 62.5999 10.3499C62.0659 10.9386 61.77 11.705 61.77 12.4999C61.77 13.2948 62.0659 14.0612 62.5999 14.6499ZM73.3499 16.4124C72.8339 16.4227 72.3211 16.3284 71.8425 16.1352C71.3638 15.9421 70.9293 15.6541 70.5649 15.2885C70.2005 14.923 69.9139 14.4875 69.7223 14.0082C69.5306 13.529 69.438 13.0159 69.4499 12.4999C69.438 11.9839 69.5306 11.4708 69.7223 10.9916C69.9139 10.5123 70.2005 10.0768 70.5649 9.7113C70.9293 9.34575 71.3638 9.05773 71.8425 8.86458C72.3211 8.67143 72.8339 8.57715 73.3499 8.5874C73.8729 8.57445 74.3921 8.6802 74.8684 8.8967C75.3447 9.1132 75.7657 9.43482 76.0999 9.8374L75.4249 10.4874C75.178 10.174 74.8597 9.92417 74.4965 9.7589C74.1334 9.59363 73.7359 9.51768 73.3374 9.5374C72.9537 9.52743 72.572 9.5954 72.2153 9.73721C71.8587 9.87901 71.5345 10.0917 71.2624 10.3624C70.7204 10.9547 70.4199 11.7284 70.4199 12.5312C70.4199 13.334 70.7204 14.1077 71.2624 14.6999C71.5345 14.9706 71.8587 15.1833 72.2153 15.3251C72.572 15.4669 72.9537 15.5349 73.3374 15.5249C73.7774 15.521 74.211 15.4191 74.6066 15.2267C75.0023 15.0342 75.3502 14.7561 75.6249 14.4124L76.2999 15.0874C75.9597 15.5001 75.533 15.8329 75.0499 16.0624C74.5163 16.3041 73.9355 16.4236 73.3499 16.4124ZM80.2249 16.2499H79.2624V9.6749H77.1624V8.7499H82.3124V9.6749H80.2249V16.2499ZM88.9374 8.7499L86.0999 15.0749C85.9863 15.4491 85.7594 15.7787 85.4503 16.0183C85.1413 16.2579 84.7655 16.3956 84.3749 16.4124C84.1165 16.4091 83.8615 16.3539 83.6249 16.2499L83.8749 15.3624C84.0268 15.4509 84.1991 15.4983 84.3749 15.4999C84.5586 15.5137 84.7421 15.4701 84.8999 15.3749C85.0505 15.2474 85.1666 15.0841 85.2374 14.8999L85.5124 14.2999L83.0124 8.7624H84.1499L85.9999 13.0624L87.7999 8.7499H88.9374ZM90.0249 16.2499V8.7499H95.4499V16.2499H94.4874V9.6749H90.9874V16.2499H90.0249ZM97.1624 16.2499V8.7499H98.1249V11.9624H101.875V8.7499H102.837V16.2499H101.875V12.8624H98.1249V16.2499H97.1624ZM110.7 15.2749C109.969 16.0016 108.98 16.4095 107.95 16.4095C106.919 16.4095 105.931 16.0016 105.2 15.2749C104.49 14.5231 104.094 13.528 104.094 12.4937C104.094 11.4594 104.49 10.4642 105.2 9.7124C105.56 9.34958 105.989 9.06162 106.46 8.86512C106.932 8.66861 107.439 8.56744 107.95 8.56744C108.461 8.56744 108.967 8.66861 109.439 8.86512C109.911 9.06162 110.34 9.34958 110.7 9.7124C111.413 10.4628 111.811 11.4585 111.811 12.4937C111.811 13.5288 111.413 14.5245 110.7 15.2749ZM105.912 14.6499C106.454 15.1888 107.186 15.4914 107.95 15.4914C108.714 15.4914 109.446 15.1888 109.987 14.6499C110.521 14.0612 110.817 13.2948 110.817 12.4999C110.817 11.705 110.521 10.9386 109.987 10.3499C109.446 9.811 108.714 9.50844 107.95 9.50844C107.186 9.50844 106.454 9.811 105.912 10.3499C105.378 10.9386 105.083 11.705 105.083 12.4999C105.083 13.2948 105.378 14.0612 105.912 14.6499ZM115.737 16.2499V8.7499H118.45C119.013 8.73927 119.559 8.94507 119.975 9.3249C120.184 9.50617 120.35 9.73113 120.463 9.98385C120.575 10.2366 120.63 10.5109 120.625 10.7874C120.631 11.1206 120.535 11.4477 120.35 11.7249C120.166 11.9942 119.911 12.2064 119.612 12.3374C119.975 12.4574 120.293 12.6839 120.525 12.9874C120.765 13.2937 120.893 13.6731 120.887 14.0624C120.894 14.3506 120.837 14.6366 120.72 14.9002C120.603 15.1637 120.43 15.3984 120.212 15.5874C119.777 15.9889 119.204 16.2081 118.612 16.1999L115.737 16.2499ZM116.7 11.9624H118.45C118.613 11.9692 118.776 11.9403 118.927 11.8777C119.079 11.8151 119.214 11.7203 119.325 11.5999C119.436 11.4996 119.525 11.3779 119.588 11.2423C119.65 11.1067 119.685 10.9598 119.69 10.8105C119.694 10.6612 119.669 10.5125 119.615 10.3732C119.561 10.2339 119.479 10.107 119.375 9.9999C119.27 9.88175 119.141 9.78802 118.997 9.72537C118.852 9.66272 118.695 9.63269 118.537 9.6374H116.75L116.7 11.9624ZM116.7 15.3249H118.637C118.807 15.3306 118.975 15.2988 119.131 15.2318C119.286 15.1648 119.425 15.0643 119.537 14.9374C119.758 14.7088 119.883 14.4049 119.887 14.0874C119.887 13.7559 119.756 13.4379 119.521 13.2035C119.287 12.9691 118.969 12.8374 118.637 12.8374H116.737L116.7 15.3249Z" fill="white"/>
        <path fill-rule="evenodd" clip-rule="evenodd" d="M64.6374 8.69244C64.1426 8.69244 63.6528 8.79035 63.196 8.98051C62.7398 9.17048 62.3255 9.44877 61.9772 9.79937C61.2895 10.5279 60.9064 11.4918 60.9064 12.4937C60.9064 13.4954 61.2894 14.4592 61.9769 15.1876C62.6841 15.8902 63.6405 16.2845 64.6374 16.2845C65.6343 16.2845 66.5908 15.8901 67.298 15.1875C67.9883 14.4605 68.3731 13.4962 68.3731 12.4937C68.3731 11.491 67.9882 10.5266 67.2977 9.7995C66.9494 9.44884 66.5351 9.17051 66.0788 8.98051C65.622 8.79035 65.1322 8.69244 64.6374 8.69244ZM63.0999 8.74972C63.5871 8.54687 64.1097 8.44244 64.6374 8.44244C65.1651 8.44244 65.6877 8.54687 66.1749 8.74972C66.6621 8.95256 67.1043 9.24981 67.4761 9.62434L67.478 9.62628C68.2132 10.3999 68.6231 11.4264 68.6231 12.4937C68.6231 13.5609 68.2132 14.5874 67.478 15.361L67.4756 15.3636C66.7214 16.1135 65.701 16.5345 64.6374 16.5345C63.5738 16.5345 62.5534 16.1135 61.7993 15.3635L61.7965 15.3608C61.0643 14.5857 60.6564 13.5599 60.6564 12.4937C60.6564 11.4274 61.0643 10.4016 61.7965 9.62656L61.7987 9.62431C62.1705 9.24979 62.6127 8.95256 63.0999 8.74972ZM107.95 8.69244C107.455 8.69244 106.965 8.79035 106.509 8.98051C106.052 9.17047 105.638 9.44874 105.29 9.79931C104.602 10.5278 104.219 11.4918 104.219 12.4937C104.219 13.4954 104.602 14.4592 105.289 15.1877C105.997 15.8902 106.953 16.2845 107.95 16.2845C108.947 16.2845 109.903 15.8901 110.611 15.1875C111.301 14.4604 111.686 13.4962 111.686 12.4937C111.686 11.491 111.301 10.5266 110.61 9.79953C110.262 9.44886 109.848 9.17051 109.391 8.98051C108.935 8.79035 108.445 8.69244 107.95 8.69244ZM106.412 8.74972C106.9 8.54687 107.422 8.44244 107.95 8.44244C108.478 8.44244 109 8.54687 109.487 8.74972C109.975 8.95256 110.417 9.24981 110.789 9.62434L110.791 9.62628C111.526 10.3999 111.936 11.4264 111.936 12.4937C111.936 13.5609 111.526 14.5874 110.791 15.361L110.788 15.3636C110.034 16.1135 109.013 16.5345 107.95 16.5345C106.886 16.5345 105.866 16.1135 105.112 15.3635L105.109 15.3608C104.377 14.5857 103.969 13.5599 103.969 12.4937C103.969 11.4274 104.377 10.4016 105.109 9.62656L105.111 9.62431C105.483 9.24979 105.925 8.95256 106.412 8.74972ZM74.8167 9.01049C74.3576 8.80181 73.8571 8.69988 73.353 8.71237L73.3474 8.7125C72.8482 8.70258 72.3522 8.79366 71.8892 8.9805C71.4263 9.16734 71.0059 9.44594 70.6534 9.79954C70.3009 10.1531 70.0237 10.5744 69.8383 11.038C69.653 11.5016 69.5633 11.9979 69.5749 12.497L69.575 12.5028C69.5635 13.0019 69.653 13.4982 69.8383 13.9618C70.0237 14.4254 70.3009 14.8467 70.6534 15.2003C71.0059 15.5539 71.4263 15.8325 71.8892 16.0193C72.3522 16.2061 72.8482 16.2974 73.3474 16.2874L73.3499 16.4124L73.3523 16.2874C73.919 16.2983 74.4809 16.1827 74.9973 15.949C75.4292 15.7436 75.8145 15.4527 76.1299 15.0942L75.6331 14.5973C75.3621 14.9065 75.0318 15.1589 74.6613 15.3391C74.2492 15.5395 73.7978 15.6456 73.3396 15.6499C72.9394 15.6601 72.5412 15.5892 72.1692 15.4413C71.7968 15.2932 71.4583 15.0711 71.1742 14.7885L71.1701 14.7844C70.607 14.1691 70.2949 13.3652 70.2949 12.5312C70.2949 11.6971 70.6071 10.8933 71.1702 10.278L71.1741 10.2737C71.4582 9.99107 71.7968 9.7691 72.1692 9.62105C72.5401 9.47358 72.9369 9.40259 73.3359 9.41233C73.7528 9.39245 74.1684 9.47224 74.5483 9.64513C74.8878 9.79961 75.1899 10.0244 75.435 10.3041L75.9281 9.8293C75.619 9.48221 75.2405 9.20316 74.8167 9.01049ZM73.3499 16.5374C72.8179 16.5477 72.2892 16.4503 71.7957 16.2511C71.3014 16.0517 70.8526 15.7542 70.4763 15.3768C70.1001 14.9993 69.8041 14.5495 69.6062 14.0546C69.4087 13.5606 69.313 13.0318 69.3249 12.4999C69.313 11.968 69.4087 11.4392 69.6062 10.9452C69.8041 10.4503 70.1001 10.0005 70.4763 9.62305C70.8526 9.24556 71.3014 8.94813 71.7957 8.74866C72.2891 8.54955 72.8176 8.45218 73.3496 8.46237C73.8906 8.4494 74.4275 8.55897 74.9201 8.7829C75.4136 9.00722 75.8499 9.34045 76.1961 9.75757L76.2702 9.84691L75.4121 10.6732L75.3267 10.5647C75.0922 10.267 74.7897 10.0297 74.4447 9.87267C74.0997 9.71566 73.7222 9.64351 73.3436 9.66225L73.3341 9.66272C72.9674 9.65318 72.6025 9.71781 72.2615 9.85336C71.9215 9.98856 71.6123 10.1912 71.3526 10.449C70.833 11.0179 70.5449 11.7606 70.5449 12.5312C70.5449 13.3017 70.833 14.0444 71.3526 14.6134C71.6123 14.8712 71.9215 15.0737 72.2615 15.2089C72.6025 15.3445 72.9674 15.4095 73.3342 15.3999L73.3363 15.3999C73.7577 15.3961 74.173 15.2986 74.552 15.1143C74.9309 14.9299 75.2641 14.6635 75.5273 14.3344L75.6145 14.2252L76.4686 15.0793L76.3964 15.1669C76.0445 15.5937 75.6031 15.938 75.1035 16.1753L75.1015 16.1763C74.5517 16.4253 73.9534 16.5486 73.3499 16.5374ZM119.891 9.41721C119.498 9.05896 118.983 8.86485 118.452 8.87488L118.45 8.8749H115.862V16.1227L118.61 16.0749L118.614 16.0749C119.174 16.0827 119.716 15.8753 120.128 15.4955L120.13 15.493C120.334 15.316 120.496 15.0964 120.606 14.8496C120.715 14.6028 120.768 14.335 120.762 14.0652L120.762 14.0605C120.768 13.6999 120.649 13.3483 120.427 13.0646L120.426 13.0633C120.209 12.7798 119.912 12.5682 119.573 12.4561L119.264 12.3538L119.562 12.2229C119.839 12.1015 120.076 11.9047 120.246 11.6551C120.417 11.3991 120.505 11.0972 120.5 10.7896V10.785C120.505 10.5268 120.453 10.2706 120.348 10.0346C120.243 9.79863 120.088 9.58857 119.893 9.41931L119.891 9.41721ZM120.058 9.23158C119.619 8.83108 119.043 8.61399 118.449 8.6249H115.612V16.3771L118.611 16.3249L118.613 16.3249C119.235 16.333 119.838 16.1025 120.296 15.6805C120.527 15.4797 120.71 15.2306 120.834 14.9508C120.958 14.6711 121.019 14.3677 121.012 14.062L121.012 14.0643L120.887 14.0624L121.012 14.0596L121.012 14.062C121.018 13.6452 120.881 13.2389 120.624 12.9108C120.433 12.6609 120.187 12.46 119.906 12.3227C120.122 12.1868 120.308 12.0076 120.453 11.7953L120.454 11.7943C120.653 11.4965 120.756 11.1453 120.75 10.7875L120.75 10.7899L120.625 10.7874L120.75 10.7852L120.75 10.7875C120.755 10.4935 120.696 10.2018 120.577 9.93308C120.457 9.66413 120.28 9.42467 120.058 9.23158ZM53.9499 8.6249H59.1999V15.1999H60.0374V17.9499H58.8624V16.3749H53.3874V17.9624H52.2124V15.2124H53.0704C53.3989 14.8533 53.6478 14.4287 53.8006 13.9662C53.959 13.4868 54.0103 12.9785 53.9508 12.4771L53.9499 12.4698V8.6249ZM54.1999 8.8749V12.4551C54.2623 12.9904 54.2071 13.5329 54.038 14.0447C53.8681 14.5588 53.5874 15.0294 53.2158 15.4232L53.1788 15.4624H52.4624V17.7124H53.1374V16.1249H59.1124V17.6999H59.7874V15.4499H58.9499V8.8749H54.1999ZM77.0374 8.6249H82.4374V9.7999H80.3499V16.3749H79.1374V9.7999H77.0374V8.6249ZM77.2874 8.8749V9.5499H79.3874V16.1249H80.0999V9.5499H82.1874V8.8749H77.2874ZM87.7166 8.6249H89.1305L86.2171 15.1189C86.0953 15.5147 85.8543 15.8633 85.5269 16.1171C85.1975 16.3725 84.7968 16.5194 84.3803 16.5373L84.3733 16.5376C84.0982 16.5341 83.8265 16.475 83.5746 16.3643L83.4751 16.3206L83.7983 15.1732L83.9378 15.2544C84.071 15.3319 84.222 15.3735 84.3761 15.3749L84.3843 15.375C84.5389 15.3866 84.6932 15.3512 84.8268 15.2729C84.9577 15.16 85.0586 15.0164 85.1207 14.855L85.1235 14.8477L85.3751 14.2995L82.8188 8.6374H84.2322L85.9982 12.7421L87.7166 8.6249ZM87.8832 8.8749L86.0016 13.3827L84.0676 8.8874H83.206L85.6497 14.3003L85.3526 14.9485C85.2741 15.1507 85.1463 15.3301 84.9807 15.4703L84.973 15.4768L84.9645 15.4819C84.7856 15.5898 84.5779 15.6397 84.3696 15.6249C84.2268 15.623 84.086 15.5943 83.9546 15.5406L83.7756 16.176C83.9667 16.2466 84.1687 16.2844 84.373 16.2874C84.7365 16.271 85.0861 16.1425 85.3738 15.9195C85.6623 15.6958 85.8742 15.388 85.9803 15.0386L85.9826 15.031L88.7443 8.8749H87.8832ZM89.8999 8.6249H95.5749V16.3749H94.3624V9.7999H91.1124V16.3749H89.8999V8.6249ZM90.1499 8.8749V16.1249H90.8624V9.5499H94.6124V16.1249H95.3249V8.8749H90.1499ZM97.0374 8.6249H98.2499V11.8374H101.75V8.6249H102.962V16.3749H101.75V12.9874H98.2499V16.3749H97.0374V8.6249ZM97.2874 8.8749V16.1249H97.9999V12.7374H102V16.1249H102.712V8.8749H102V12.0874H97.9999V8.8749H97.2874ZM62.5117 10.2613C63.0763 9.6991 63.8406 9.38344 64.6374 9.38344C65.4342 9.38344 66.1985 9.6991 66.7631 10.2613L66.7676 10.2658C67.3225 10.8775 67.6298 11.674 67.6298 12.4999C67.6298 13.3258 67.3224 14.1222 66.7675 14.7339L66.7632 14.7386C66.1986 15.3008 65.4342 15.6164 64.6374 15.6164C63.8406 15.6164 63.0763 15.3007 62.5117 14.7385L62.5999 14.6499L62.5073 14.7339C61.9524 14.1222 61.645 13.3258 61.645 12.4999C61.645 11.674 61.9524 10.8776 62.5073 10.2659L62.5117 10.2613ZM62.6904 14.5636C63.2079 15.0777 63.9078 15.3664 64.6374 15.3664C65.367 15.3664 66.0669 15.0777 66.5845 14.5636C67.0963 13.9981 67.3798 13.2627 67.3798 12.4999C67.3798 11.7371 67.0963 11.0017 66.5845 10.4362C66.0669 9.92207 65.367 9.63344 64.6374 9.63344C63.9078 9.63344 63.2079 9.92207 62.6904 10.4362C62.1785 11.0017 61.895 11.7372 61.895 12.4999C61.895 13.2627 62.1785 13.9981 62.6904 14.5636ZM105.824 10.2613C106.389 9.6991 107.153 9.38344 107.95 9.38344C108.747 9.38344 109.511 9.6991 110.076 10.2613L110.08 10.2658C110.635 10.8775 110.942 11.674 110.942 12.4999C110.942 13.3258 110.635 14.1222 110.08 14.7339L110.076 14.7386C109.511 15.3008 108.747 15.6164 107.95 15.6164C107.153 15.6164 106.389 15.3007 105.824 14.7385L105.912 14.6499L105.82 14.7339C105.265 14.1222 104.958 13.3258 104.958 12.4999C104.958 11.674 105.265 10.8776 105.82 10.2659L105.824 10.2613ZM106.003 14.5636C106.52 15.0777 107.22 15.3664 107.95 15.3664C108.679 15.3664 109.379 15.0777 109.897 14.5636C110.409 13.9982 110.692 13.2627 110.692 12.4999C110.692 11.7371 110.409 11.0016 109.897 10.4362C109.379 9.92206 108.679 9.63344 107.95 9.63344C107.22 9.63344 106.52 9.92206 106.003 10.4362C105.491 11.0016 105.208 11.7371 105.208 12.4999C105.208 13.2627 105.491 13.9982 106.003 14.5636ZM118.536 9.5124C118.711 9.50744 118.885 9.54098 119.046 9.61066C119.207 9.6802 119.35 9.78406 119.467 9.91494C119.581 10.0336 119.671 10.174 119.731 10.328C119.791 10.4829 119.82 10.6483 119.814 10.8144C119.809 10.9805 119.771 11.1439 119.701 11.2947C119.632 11.4439 119.534 11.5778 119.413 11.6887C119.291 11.8205 119.141 11.9244 118.975 11.9932C118.808 12.0624 118.628 12.0946 118.447 12.0874H116.572L116.628 9.5124H118.536ZM118.947 9.84009C118.819 9.78472 118.68 9.75818 118.541 9.76235L118.537 9.7624H116.872L116.828 11.8374H118.455C118.6 11.8435 118.745 11.8179 118.88 11.7622C119.014 11.7066 119.134 11.6223 119.233 11.5153L119.237 11.5111L119.241 11.5073C119.339 11.4182 119.418 11.3103 119.474 11.1899C119.53 11.0695 119.56 10.9392 119.565 10.8066C119.569 10.6741 119.546 10.5421 119.498 10.4184C119.45 10.2948 119.378 10.1821 119.285 10.0871L119.281 10.0828C119.189 9.97837 119.075 9.89545 118.947 9.84009ZM54.8749 9.5499H58.1624V15.4999H54.0658L54.1804 15.3102C54.6898 14.4675 54.932 13.4902 54.8751 12.5071L54.8747 12.4999L54.8749 9.5499ZM55.1249 9.7999V12.4963C55.1797 13.4557 54.9637 14.4096 54.5036 15.2499H57.9124V9.7999H55.1249ZM116.614 12.7124H118.637C119.002 12.7124 119.352 12.8573 119.61 13.1151C119.868 13.373 120.012 13.7227 120.012 14.0874L120.012 14.0892C120.007 14.4376 119.87 14.7711 119.629 15.0223C119.505 15.162 119.352 15.2727 119.18 15.3466C119.008 15.4206 118.822 15.4559 118.635 15.4499H116.573L116.614 12.7124ZM116.861 12.9624L116.827 15.1999H118.642C118.792 15.205 118.943 15.1767 119.081 15.117C119.22 15.0573 119.344 14.9677 119.444 14.8546L119.447 14.8506C119.645 14.645 119.758 14.3719 119.762 14.0865C119.762 13.7885 119.644 13.5027 119.433 13.2919C119.222 13.0809 118.936 12.9624 118.637 12.9624H116.861Z" fill="white"/>
        <path d="M13.6742 9.42497C13.2668 9.91385 13.0611 10.5397 13.0992 11.175V38.825C13.0611 39.4602 13.2668 40.0861 13.6742 40.575L13.7617 40.6625L29.2492 25.1875V24.825L13.7617 9.33746L13.6742 9.42497Z" fill="url(#paint0_linear_12584_386)"/>
        <path d="M34.3745 30.3498L29.2495 25.1873V24.8248L34.3745 19.6498L34.487 19.7123L40.6245 23.1998C42.3745 24.1873 42.3745 25.8123 40.6245 26.8123L34.512 30.2873L34.3745 30.3498Z" fill="url(#paint1_linear_12584_386)"/>
        <path d="M34.5243 30.2749L29.2493 24.9999L13.6743 40.5749C14.031 40.8884 14.4861 41.0675 14.9608 41.0812C15.4355 41.0949 15.9001 40.9424 16.2743 40.6499L34.5368 30.2749" fill="url(#paint2_linear_12584_386)"/>
        <path d="M34.5241 19.7248L16.2616 9.34982C15.8874 9.05733 15.4228 8.90476 14.9481 8.91845C14.4734 8.93214 14.0183 9.11125 13.6616 9.42482L29.2491 24.9998L34.5241 19.7248Z" fill="url(#paint3_linear_12584_386)"/>
        <path opacity="0.2" d="M34.3743 30.1625L16.2618 40.475C15.9009 40.7448 15.4624 40.8906 15.0118 40.8906C14.5612 40.8906 14.1227 40.7448 13.7618 40.475L13.6743 40.5625L13.7618 40.65C14.1219 40.9217 14.5607 41.0687 15.0118 41.0687C15.4629 41.0687 15.9017 40.9217 16.2618 40.65L34.5243 30.275L34.3743 30.1625Z" fill="black"/>
        <path opacity="0.12" d="M13.6742 40.3999C13.2668 39.911 13.0611 39.2851 13.0992 38.6499V38.8374C13.0611 39.4726 13.2668 40.0985 13.6742 40.5874L13.7617 40.4999L13.6742 40.3999ZM40.6242 26.6249L34.3742 30.1624L34.4867 30.2749L40.6242 26.7999C40.9725 26.6363 41.2714 26.3837 41.4909 26.0677C41.7103 25.7517 41.8426 25.3833 41.8742 24.9999C41.8039 25.3483 41.6547 25.6759 41.438 25.9576C41.2213 26.2393 40.9429 26.4676 40.6242 26.6249Z" fill="black"/>
        <path opacity="0.25" d="M16.2619 9.52468L40.6244 23.3747C40.9431 23.532 41.2215 23.7603 41.4382 24.042C41.6549 24.3237 41.8041 24.6513 41.8744 24.9997C41.8428 24.6162 41.7105 24.2479 41.4911 23.9319C41.2716 23.6158 40.9727 23.3633 40.6244 23.1997L16.2619 9.34968C14.5119 8.36218 13.0869 9.18718 13.0869 11.1872V11.3747C13.1244 9.36218 14.5244 8.53718 16.2619 9.52468Z" fill="white"/>
    </g>
    <defs>
        <linearGradient id="paint0_linear_12584_386" x1="27.8742" y1="10.8875" x2="6.8992" y2="31.8625" gradientUnits="userSpaceOnUse">
            <stop stop-color="#00A0FF"/>
            <stop offset="0.01" stop-color="#00A1FF"/>
            <stop offset="0.26" stop-color="#00BEFF"/>
            <stop offset="0.51" stop-color="#00D2FF"/>
            <stop offset="0.76" stop-color="#00DFFF"/>
            <stop offset="1" stop-color="#00E3FF"/>
        </linearGradient>
        <linearGradient id="paint1_linear_12584_386" x1="42.912" y1="24.9998" x2="12.6745" y2="24.9998" gradientUnits="userSpaceOnUse">
            <stop stop-color="#FFE000"/>
            <stop offset="0.41" stop-color="#FFBD00"/>
            <stop offset="0.78" stop-color="#FFA500"/>
            <stop offset="1" stop-color="#FF9C00"/>
        </linearGradient>
        <linearGradient id="paint2_linear_12584_386" x1="31.6618" y1="27.8749" x2="3.21182" y2="56.3124" gradientUnits="userSpaceOnUse">
            <stop stop-color="#FF3A44"/>
            <stop offset="1" stop-color="#C31162"/>
        </linearGradient>
        <linearGradient id="paint3_linear_12584_386" x1="9.74912" y1="0.224818" x2="22.4491" y2="12.9248" gradientUnits="userSpaceOnUse">
            <stop stop-color="#32A071"/>
            <stop offset="0.07" stop-color="#2DA771"/>
            <stop offset="0.48" stop-color="#15CF74"/>
            <stop offset="0.8" stop-color="#06E775"/>
            <stop offset="1" stop-color="#00F076"/>
        </linearGradient>
        <clipPath id="clip0_12584_386">
            <rect width="168.75" height="50" fill="white" transform="translate(0.624512)"/>
        </clipPath>
    </defs>
</svg>
