<svg width="25" height="25" viewBox="0 0 25 25" fill="none" xmlns="http://www.w3.org/2000/svg">
    <path d="M12.5 1.25C6.28739 1.25 1.25 6.28739 1.25 12.5C1.25 18.7126 6.28739 23.75 12.5 23.75C18.7126 23.75 23.75 18.7126 23.75 12.5C23.75 6.28739 18.7126 1.25 12.5 1.25ZM12.5 21.8415C7.34208 21.8415 3.15848 17.6579 3.15848 12.5C3.15848 7.34208 7.34208 3.15848 12.5 3.15848C17.6579 3.15848 21.8415 7.34208 21.8415 12.5C21.8415 17.6579 17.6579 21.8415 12.5 21.8415Z" fill="black"/>
    <path d="M15.3025 7.5957C14.5491 6.93527 13.5547 6.57366 12.5 6.57366C11.4453 6.57366 10.4509 6.93778 9.69754 7.5957C8.91406 8.28125 8.48214 9.20285 8.48214 10.1897V10.3806C8.48214 10.4911 8.57254 10.5815 8.68304 10.5815H9.88839C9.99888 10.5815 10.0893 10.4911 10.0893 10.3806V10.1897C10.0893 9.08231 11.1716 8.1808 12.5 8.1808C13.8284 8.1808 14.9107 9.08231 14.9107 10.1897C14.9107 10.9707 14.3583 11.6864 13.502 12.0153C12.9696 12.2188 12.5176 12.5753 12.1936 13.0424C11.8647 13.5195 11.6939 14.0921 11.6939 14.6722V15.2121C11.6939 15.3225 11.7843 15.4129 11.8948 15.4129H13.1002C13.2107 15.4129 13.3011 15.3225 13.3011 15.2121V14.642C13.3024 14.3982 13.3771 14.1605 13.5155 13.9598C13.6539 13.7592 13.8496 13.6048 14.077 13.517C15.5586 12.947 16.5153 11.6412 16.5153 10.1897C16.5179 9.20285 16.0859 8.28125 15.3025 7.5957ZM11.4955 18.0246C11.4955 18.291 11.6014 18.5464 11.7897 18.7348C11.9781 18.9232 12.2336 19.029 12.5 19.029C12.7664 19.029 13.0219 18.9232 13.2103 18.7348C13.3986 18.5464 13.5045 18.291 13.5045 18.0246C13.5045 17.7582 13.3986 17.5027 13.2103 17.3143C13.0219 17.1259 12.7664 17.0201 12.5 17.0201C12.2336 17.0201 11.9781 17.1259 11.7897 17.3143C11.6014 17.5027 11.4955 17.7582 11.4955 18.0246Z" fill="black"/>
</svg>
