<svg width="26" height="26" viewBox="0 0 26 26" fill="none" xmlns="http://www.w3.org/2000/svg">
    <path d="M6.4312 13.0005L2.89474 3.90881C2.64891 3.27652 3.26557 2.67131 3.87599 2.88589L3.97286 2.92756L22.7229 12.3026C22.8436 12.363 22.9465 12.4537 23.0217 12.5658C23.0969 12.6779 23.1418 12.8076 23.152 12.9422C23.1622 13.0768 23.1373 13.2117 23.0798 13.3338C23.0223 13.456 22.9341 13.5611 22.8239 13.639L22.7229 13.6994L3.97286 23.0744C3.36557 23.3776 2.70516 22.8203 2.86349 22.1921L2.89474 22.0921L6.4312 13.0005L2.89474 3.90881L6.4312 13.0005ZM5.08536 5.22964L7.80411 12.2192H14.7072C14.896 12.2192 15.0784 12.2876 15.2207 12.4117C15.363 12.5358 15.4555 12.7072 15.4812 12.8942L15.4885 13.0005C15.4884 13.1894 15.4199 13.372 15.2956 13.5143C15.1713 13.6566 14.9997 13.749 14.8124 13.7744L14.7072 13.7817H7.80203L5.08432 20.7713L20.627 13.0005L5.08432 5.22964H5.08536Z" fill="black"/>
</svg>
