<svg width="25" height="25" viewBox="0 0 25 25" fill="none" xmlns="http://www.w3.org/2000/svg">
    <path fill-rule="evenodd" clip-rule="evenodd" d="M12.3654 2.5C5.80268 2.5 5.80287 12.134 12.3654 12.134C18.9243 12.134 18.929 2.5 12.3654 2.5ZM12.3654 4.27778C16.6373 4.27778 16.6373 10.3562 12.3654 10.3562C8.09367 10.3562 8.09351 4.27778 12.3654 4.27778Z" fill="black"/>
    <path fill-rule="evenodd" clip-rule="evenodd" d="M18.2444 12.4223C16.905 11.9252 16.1468 12.3316 15.0004 13.0187C13.5024 13.914 11.4976 13.9156 9.99905 13.0189C8.85262 12.3317 8.09415 11.9248 6.75473 12.4224C5.83813 12.7628 5.20046 13.3478 4.70897 14.1596C4.0372 15.2688 3.74284 16.5952 3.64818 17.8794C3.54936 19.2155 3.57617 20.6072 4.65707 21.5729C5.34615 22.188 6.25793 22.5 7.3667 22.5H17.6332C18.742 22.5 19.6535 22.1881 20.3427 21.5729C21.424 20.6078 21.4511 19.2149 21.3513 17.8789C21.2566 16.597 20.9612 15.2666 20.2903 14.1596C19.7984 13.3479 19.1621 12.7634 18.2444 12.4223ZM9.08408 14.5435C8.47218 14.1767 8.09117 13.8225 7.37462 14.0888C5.56734 14.7599 5.38445 17.4137 5.38445 19.0604C5.38445 20.2136 6.29936 20.7222 7.3667 20.7222H17.6332C18.7009 20.7222 19.6155 20.2135 19.6155 19.0602C19.6147 17.4137 19.4309 14.7609 17.6249 14.0887C17.0847 13.8877 16.2338 14.0568 15.548 14.5215C13.6118 15.8333 11.3882 15.8333 9.08408 14.5435Z" fill="black"/>
</svg>
